<?xml version="1.0" encoding="UTF-8"?>
<svg id="Layer_1" data-name="Layer 1" xmlns="http://www.w3.org/2000/svg" viewBox="0 0 198.33 105.84">
  <defs>
    <style>
      .cls-1 {
        fill: #fff;
        stroke-width: 0px;
      }
    </style>
  </defs>
  <path class="cls-1" d="M118.27,78.9l13.6,24c2.2,3.9,7.7,3.9,10,.1l39.7-66.5,16-27.8c2.2-3.9-.6-8.7-5-8.7h-28.7c-2.1,0-4,1.1-5,2.9l-19.4,33.6-21.2,36.7c-1,1.8-1,4,0,5.7Z"/>
  <path class="cls-1" d="M80.07,78.9l-13.6,24c-2.2,3.9-7.7,3.9-10,.1L16.77,36.5.77,8.7C-1.43,4.8,1.37,0,5.77,0h28.7c2.1,0,4,1.1,5,2.9l19.4,33.6,21.2,36.7c1,1.8,1,4,0,5.7Z"/>
  <path class="cls-1" d="M115.87,0h-32.9C78.57,0,75.77,4.8,77.97,8.7l16.4,28.6c2.2,3.9,7.8,3.9,10,0l16.5-28.6C123.07,4.8,120.27,0,115.87,0Z"/>
</svg>