<?xml version="1.0" encoding="UTF-8"?>
<svg id="Layer_1" data-name="Layer 1" xmlns="http://www.w3.org/2000/svg" viewBox="0 0 500 500">
  <defs>
    <style>
      .cls-1 {
        fill: none;
        stroke: #fff;
        stroke-miterlimit: 10;
        stroke-width: 12px;
      }
    </style>
  </defs>
  <path class="cls-1" d="M280.5,291.49l21.72,38.32c3.51,6.23,12.29,6.23,15.97.16l63.39-106.18,25.55-44.39c3.51-6.23-.96-13.89-7.98-13.89h-45.83c-3.35,0-6.39,1.76-7.98,4.63l-30.98,53.65-33.85,58.6c-1.6,2.87-1.6,6.39,0,9.1h0Z"/>
  <path class="cls-1" d="M219.5,291.49l-21.72,38.32c-3.51,6.23-12.29,6.23-15.97.16l-63.39-106.18-25.55-44.39c-3.51-6.23.96-13.89,7.98-13.89h45.83c3.35,0,6.39,1.76,7.98,4.63l30.98,53.65,33.85,58.6c1.6,2.87,1.6,6.39,0,9.1h.01Z"/>
  <path class="cls-1" d="M276.67,165.5h-52.53c-7.03,0-11.5,7.66-7.98,13.89l26.19,45.67c3.51,6.23,12.45,6.23,15.97,0l26.35-45.67c3.51-6.23-.96-13.89-7.98-13.89h-.02Z"/>
</svg>