<?xml version="1.0" encoding="UTF-8"?>
<svg id="Layer_1" data-name="Layer 1" xmlns="http://www.w3.org/2000/svg" viewBox="0 0 557.51 78.58">
  <defs>
    <style>
      .cls-1 {
        stroke-width: 0px;
      }
    </style>
  </defs>
  <path class="cls-1" d="M183.21,29.69h46.87c-1.49,6.28-2.5,11.8-4.26,17.07-.43,1.28-3.29,2.44-5.05,2.47-11.82.22-23.64.11-35.46.12-8.2,0-8.28.09-8.93,9.47h46.77c-1.52,6.29-2.64,11.62-4.2,16.82-.34,1.15-2.21,2.61-3.39,2.62-20.97.12-41.95.03-62.92-.04-.44,0-.89-.37-1.88-.82,2.27-9.24,4.54-18.54,6.82-27.83,3.61-14.68,7.26-29.34,10.83-44.03.62-2.57,1.14-4.59,4.63-4.57,20.31.14,40.62.08,60.94.11.8,0,1.6.22,3.05.44-1.33,5.52-2.32,10.88-4.04,15.98-.44,1.29-3.21,2.5-4.93,2.53-11.65.23-23.31.14-34.96.14q-8.25,0-9.88,9.51Z"/>
  <path class="cls-1" d="M34.58,77.8c4.53-6.09,8.45-11.59,12.67-16.85.7-.87,2.71-.9,4.13-.95,3.46-.13,6.93-.04,11.36-.04-2.64-7.86-5.02-14.96-7.77-23.17-4.74,5.79-8.82,10.73-12.84,15.72-6.06,7.52-11.93,15.21-18.24,22.52-1.5,1.74-4.32,3.03-6.65,3.23-5.42.47-10.91.15-16.38.15-.29-.42-.59-.83-.88-1.25C20.71,51.84,41.43,26.52,63.02.13c9.04,26.47,17.65,51.68,26.53,77.67h-54.98Z"/>
  <path class="cls-1" d="M478.75,1.39c-1.1,3.86-1.62,7.22-3.08,10.1-.62,1.22-3.22,2-4.93,2.02-14.16.16-28.32.09-42.48.1-1.5,0-3.17-.37-4.46.15-1.98.81-4.87,1.97-5.24,3.5-.46,1.88.66,5.08,2.21,6.29,3.08,2.41,6.85,4.01,10.46,5.66,6.81,3.09,13.93,5.56,20.52,9.04,10,5.28,13.82,12.73,11.91,21.34-2.48,11.19-9.32,17.69-20.83,18.01-17.59.48-35.21.13-53.66.13.66-3.35.92-6.82,2.16-9.9.48-1.19,3.14-2.1,4.81-2.13,12.83-.18,25.66,0,38.48-.17,3.27-.04,6.74-.37,9.76-1.52,4.74-1.79,5.58-6.69,1.68-9.93-3.02-2.5-6.65-4.39-10.23-6.08-7.37-3.47-15.19-6.08-22.27-10.03-12.28-6.86-14.85-17.59-7.65-28.44,3.79-5.7,9.67-7.9,15.9-8.02,18.62-.36,37.26-.13,56.94-.13Z"/>
  <path class="cls-1" d="M160.11,1.04c-1.46,6.09-2.54,11.44-4.14,16.62-.35,1.13-2.57,2.29-3.99,2.36-5.81.28-11.64.06-17.47.18-11.57.25-21.15,7.47-24.6,18.42-3.4,10.79,2.64,19.63,13.89,20.08,5.48.22,10.98.02,16.47.08,1.76.02,3.52.25,5.91.43-1.46,6-2.62,11.48-4.24,16.82-.32,1.06-2.39,2.26-3.65,2.25-8.31-.03-16.68.25-24.9-.75-17.34-2.1-27.57-18.79-23.41-37.32C95.3,16.47,119.16-.16,138.6.98c6.92.4,13.88.06,21.5.06Z"/>
  <path class="cls-1" d="M327.85,77.99c3.76-9.74,6.74-11.87,16.04-11.88,6.8,0,13.6,0,21.45,0-3.72-12.36-7.26-24.12-11.1-36.88-2.04,2.55-3.48,4.29-4.85,6.08-9.59,12.57-19.36,25.01-28.63,37.81-3.03,4.18-6.3,5.9-11.25,5.35-2.72-.3-5.5-.05-8.26-.05-.22-.46-.45-.92-.67-1.38,19.49-25.29,38.98-50.58,59.36-77.04,8.52,26.68,16.61,52,24.91,77.99h-57Z"/>
  <path class="cls-1" d="M233.41,78.42c3.79-15.57,7.11-29.94,10.85-44.21,1.76-6.71,3.8-13.45,6.69-19.73,3.99-8.65,11.81-12.77,20.96-13.04,16.3-.48,32.62-.17,48.94-.16.61,0,1.23.33,2.26.63-.73,3.18-1.04,6.39-2.29,9.18-.57,1.26-2.99,2.37-4.59,2.39-12.65.2-25.31.47-37.95.02-12.1-.43-16.97,3.44-17.96,19.87h55.13c-.91,3.93-1.27,7.26-2.56,10.18-.52,1.18-3.07,2.06-4.7,2.08-15.48.15-30.97.25-46.44-.02-4.1-.07-5.87,1.06-6.66,5.13-1.43,7.33-3.57,14.51-5.08,21.83-.87,4.22-2.56,6.53-7.27,5.92-2.74-.35-5.55-.06-9.31-.06Z"/>
  <path class="cls-1" d="M557.21,1.21c.2.6.32.76.3.9q-1.97,11.49-13.58,11.49c-4.66,0-9.34.26-13.98-.09-3.6-.27-4.95,1.2-5.72,4.48-4.31,18.26-8.9,36.46-13.12,54.74-.99,4.28-2.32,6.57-7.27,5.38-2.62-.63-5.52-.11-9.09-.11,5.26-21.83,10.31-42.75,15.54-64.45h-29.28c1.16-4.33,1.92-7.85,3.14-11.2.32-.87,2.09-1.71,3.2-1.71,22.8-.07,45.6-.02,68.41.04.46,0,.92.33,1.46.54Z"/>
</svg>