<?xml version="1.0" encoding="UTF-8"?>
<svg id="Layer_1" data-name="Layer 1" xmlns="http://www.w3.org/2000/svg" viewBox="0 0 2557.64 608.09">
  <defs>
    <style>
      .cls-1 {
        stroke-width: 0px;
      }
    </style>
  </defs>
  <path class="cls-1" d="M1087.86,31.35c-.09,2.23-.25,4.47-.25,6.7-.01,135.86.03,271.73-.08,407.59-.01,13.46-4.35,25.33-16.17,33.15-19.61,12.97-43.56,8.76-57.7-10.06-81.04-107.87-162.07-215.76-243.1-323.64-1.23-1.64-2.51-3.24-4.78-4.59v345.02h-83.17v-6.68c0-146.92,0-293.85,0-440.77,0-2.24-.09-4.48-.14-6.72,35.58,0,71.15,0,106.73,0,.65,1.28,1.14,2.68,1.98,3.81,69.78,93.1,139.59,186.17,209.41,279.24.92,1.22,1.97,2.35,2.95,3.52.37-.13.75-.27,1.12-.4,0-1.86,0-3.73,0-5.59,0-91.59,0-183.18,0-274.77,0-1.94-.14-3.87-.21-5.81,27.8,0,55.61,0,83.41,0Z"/>
  <path class="cls-1" d="M2246.66,31.35c6.45.94,12.97,1.53,19.34,2.87,56.44,11.8,93.55,45.26,109.39,100.65,15.79,55.19-1.2,101.95-40.31,141.88-8.02,8.19-16.94,15.51-25.96,23.71,38.66,61.27,77.51,122.83,116.68,184.91-1.62.2-2.71.44-3.79.44-29.59.02-59.19-.06-88.78.12-3.34.02-4.73-1.57-6.22-3.94-37.36-59.25-74.78-118.46-112.05-177.77-2.29-3.64-4.75-4.9-8.98-4.87-28.84.18-57.69.09-86.53.1-5.82,0-5.83.02-5.83,5.93,0,58.14,0,116.28,0,174.42v5.68c-1.6.14-2.89.34-4.17.35-24.21.02-48.42-.06-72.64.09-3.78.02-4.87-1.2-4.85-4.86.12-21.52.06-43.04.06-64.56,0-125.99,0-251.98.01-377.98,0-2.38.18-4.77.27-7.15,71.45,0,142.91,0,214.36,0ZM2113.62,111.8v5.66c0,32.13,0,64.25,0,96.38,0,5.86,0,5.88,5.89,5.88,38.55,0,77.1.08,115.66-.07,7.14-.03,14.33-.57,21.39-1.61,27.27-3.98,48.45-29.95,45.48-57.1-2.17-19.82-12.42-34.92-31.33-43.04-10.58-4.54-21.83-6.04-33.23-6.08-39.45-.11-78.9-.04-118.35-.04-1.61,0-3.22,0-5.52,0Z"/>
  <path class="cls-1" d="M1965.93,31.35c-.11,3.27-.32,6.55-.32,9.82-.03,21.67-.01,43.35-.01,65.02,0,1.62,0,3.24,0,5.42h-240.98c-.1,2.25-.24,3.98-.24,5.7-.01,94.92.02,189.83-.11,284.75,0,4.37,1.21,5.44,5.5,5.43,76.53-.13,153.06-.09,229.59-.09,1.9,0,3.8,0,5.95,0v78.42h-5.08c-92.23,0-184.45.03-276.68-.09-5.15,0-10.49-.67-15.42-2.11-16.6-4.86-24.49-18.71-26.61-35.25-.32-2.5-.17-5.08-.17-7.62,0-134.23,0-268.46,0-402.69,0-2.24-.06-4.48-.09-6.72,108.23,0,216.45,0,324.68,0Z"/>
  <path class="cls-1" d="M1575.78,31.35c-15.46,20.53-30.87,41.09-46.37,61.58-94.59,124.99-189.28,249.89-283.68,375.01-11.73,15.54-34.28,22.72-51.8,14.57-13.75-6.39-20.7-16.94-22.48-31.48-.38-3.1-.43-6.26-.43-9.4-.02-134.67-.02-269.35,0-404.02,0-2.09.18-4.17.27-6.26,27.5,0,55.01,0,82.52,0,.04,2.24.11,4.48.11,6.72,0,91.28,0,182.56.02,273.84,0,1.93.27,3.86.49,6.87,1.6-1.89,2.39-2.74,3.09-3.67,70.48-93.31,140.96-186.63,211.41-279.97.84-1.12,1.29-2.53,1.93-3.8,34.98,0,69.96,0,104.94,0Z"/>
  <path class="cls-1" d="M635.26,485.82h-4.95c-26.9,0-53.8-.09-80.7.1-3.76.03-5.44-1.33-7.02-4.53-51.58-104.34-103.26-208.64-154.93-312.93-.91-1.85-1.91-3.65-3.36-6.42-1.38,2.58-2.43,4.42-3.37,6.32-51.52,104.03-103.07,208.04-154.46,312.13-2,4.05-4.17,5.5-8.74,5.46-26.75-.25-53.5-.12-80.25-.12h-5.63c.97-2.15,1.63-3.73,2.39-5.26,69.74-140.48,139.54-280.93,209.17-421.47,8.54-17.23,21.87-25.76,40.97-25.71,19.47.05,33.32,9.14,41.8,26.37,38.75,78.71,77.4,157.48,116.07,236.23,30.32,61.74,60.63,123.49,90.93,185.24.64,1.3,1.2,2.63,2.1,4.6Z"/>
  <path class="cls-1" d="M1604.77,485.82c-10.5,0-19.75,0-29,0-21.21,0-42.43-.06-63.64.07-2.88.02-4.56-.84-6.11-3.31-34.09-54.22-68.25-108.38-102.45-162.53-1.35-2.14-1.72-3.68-.02-5.93,16.41-21.85,32.7-43.8,49.03-65.71.51-.68,1.14-1.27,2.03-2.26,50,79.8,99.8,159.28,150.16,239.67Z"/>
  <path class="cls-1" d="M295.28,458.18c39.65-51.85,78.63-102.81,117.6-153.77l1.21.31c-.36,5.36-.61,10.72-1.11,16.06-1.35,14.4-2.88,28.78-4.2,43.19-1.66,18.12-3.07,36.26-4.86,54.36-.36,3.59.68,4.39,3.98,4.37,15.99-.11,31.98-.05,47.96-.04,1.15,0,2.31.15,4.72.32-39.94,51.73-79.33,102.75-118.73,153.76-.35-.13-.69-.27-1.04-.4.39-5.42.67-10.86,1.17-16.27,2.87-31.03,5.78-62.06,8.72-93.09.83-8.8.91-8.8-8.07-8.8-15.38,0-30.76,0-47.36,0Z"/>
  <path class="cls-1" d="M1841.6,298.26c-25.25,0-50.5-.09-75.75.09-4.29.03-5.66-1.25-5.63-5.58.18-22.56.16-45.12.02-67.69-.02-3.95,1-5.46,5.27-5.45,50.8.14,101.61.12,152.41.02,3.71,0,4.81,1.06,4.79,4.8-.16,23.31-.21,46.62.03,69.93.05,4.41-1.57,5.08-5.4,5.06-25.25-.13-50.49-.07-75.74-.07,0-.37,0-.74,0-1.11Z"/>
</svg>