<?xml version="1.0" encoding="UTF-8"?>
<svg id="Layer_1" data-name="Layer 1" xmlns="http://www.w3.org/2000/svg" viewBox="0 0 555.66 462.77">
  <defs>
    <style>
      .cls-1 {
        stroke-width: 0px;
      }
    </style>
  </defs>
  <path class="cls-1" d="M282.79,195.38c-9.6,8.11-18.78,14.76-26.62,22.73-12.27,12.47-24.54,25.13-35.11,39.01-9.81,12.88-17.74,27.26-25.8,41.37-4.93,8.63-8.56,18-12.75,27.05-1.66,3.6-.98,4.54,3,4.22,11.6-.95,23.2-1.94,34.81-2.87,1.65-.13,3.33-.02,5.12.95-5.32,2.66-10.76,5.12-15.94,8.02-14.36,8.03-27.01,17.76-36.1,32.07-7.78,12.25-8.56,25.3-7.98,38.97.3,7.07.13,7.08-6.76,7.08-27.46,0-54.92-.09-82.38.1-4.42.03-6.34-1.3-5.46-5.62,2.37-11.67,4.43-23.42,7.46-34.92,3.31-12.57,7.34-24.98,11.5-37.3,2.49-7.36,5.68-14.5,8.82-21.63,5.56-12.59,11.15-25.18,17.08-37.6,3.27-6.85,7.1-13.46,10.98-19.99,4.61-7.77,9.25-15.56,14.41-22.98,8.92-12.84,17.88-25.68,27.53-37.97,8.68-11.06,17.83-21.84,27.65-31.89,11.73-12,24.12-23.41,36.74-34.48,9.11-7.99,18.88-15.27,28.71-22.39,8.8-6.38,17.89-12.41,27.17-18.06,12.42-7.57,25-14.91,37.81-21.8,8.07-4.34,16.64-7.8,25.07-11.45,10.77-4.66,21.53-9.38,32.49-13.55,10.97-4.18,22.1-8,33.32-11.45,10.77-3.31,21.75-5.96,32.65-8.87,1.01-.27,2.07-.34,3.83-.62-1.17,3.16-1.98,5.79-3.09,8.29-6.32,14.34-12.97,28.53-18.98,42.99-4.32,10.39-8.01,21.05-11.59,31.72-2.41,7.18-9.08,8.29-14.53,11.08-8.98,4.59-18.15,8.81-27.24,13.18-.13.56-.26,1.13-.39,1.69,7.71,5.5,15.42,11.01,24.04,17.16-11.86,4.48-22.94,8.66-35.37,13.35,5.13,3.36,8.98,5.99,12.93,8.44,3.48,2.16,7.04,4.24,10.65,6.18,3.86,2.07,5.57,4.49,4.97,9.46-3.32,27.77-5.27,55.63-2.63,83.6,1.21,12.85,2.71,25.68,4.05,38.52.31,2.99.47,5.99.73,9.4-7.83,1.08-15.33,2.11-22.82,3.14-.19.37-.38.74-.56,1.1,5.63,3.53,11.21,7.16,16.92,10.55,4.52,2.68,7.92,5.44,9.68,11.22,3.88,12.7,9.25,24.95,14.03,37.38,4.25,11.05,8.51,22.09,13,33.72-2.02.1-3.55.27-5.08.25-35.75-.61-71.51-1.27-107.26-1.82-3.38-.05-4.97-1.22-6.07-4.58-3.9-11.9-8.63-23.54-12.27-35.52-2.63-8.65-4.54-17.6-5.88-26.56-6.6-44.12-8.99-88.54-8.48-133.13.06-5.07,0-10.15,0-16.95Z"/>
</svg>