<?xml version="1.0" encoding="UTF-8"?>
<svg xmlns="http://www.w3.org/2000/svg" viewBox="0 0 465.94 284.45" fill="currentColor">
  <path d="M211.82,89.66c-7.78-.05-15.68-2.19-23.31,1.18-27.57,12.19-55.04,24.59-82.61,36.76-3.91,1.72-4.45,3.36-2.2,7.04,18.59,30.41,36.9,61,55.61,91.34,3.09,5.01,7.71,9.07,11.21,13.09-16.52-7.94-29.97-19.97-41.19-35.48-19.24-26.58-39.78-52.2-59.77-78.23-.29-.38-.47-.86-.72-1.33,39.96-13.31,79.84-26.59,119.72-39.88.79-.26,1.79-.32,2.32-.84,1.1-1.09,1.96-2.43,2.91-3.67-1.61-.65-3.38-2.09-4.82-1.82-5.05.97-9.99,2.52-14.97,3.87-36.14,9.78-72.29,19.5-108.38,29.44-4.38,1.21-6.97.3-9.66-3.3-10.98-14.67-22.28-29.1-33.33-43.73-2.06-2.72-4.15-3.63-7.62-3.22-4.55.53-9.2.13-15.01.13,8.4-6.13,15.97-11.69,23.57-17.19C42.34,30.25,61.05,16.61,79.98,3.26c2.63-1.85,6.32-3.09,9.52-3.11C125.67-.06,161.85.01,197.14.01c-22.58,2.61-46.04,5.33-69.49,8.03-12.06,1.39-24.13,2.65-36.17,4.17-2.19.28-4.57,1.06-6.35,2.34-11.36,8.17-22.5,16.64-33.89,24.77-3.11,2.22-3,3.98-1.18,6.93,9.89,16.02,19.62,32.12,29.34,48.24,1.5,2.49,2.96,4.07,6.34,3.24,33.45-8.23,66.94-16.3,100.38-24.55,1.35-.33,2.36-2.02,3.54-3.07-1.56-1.01-3.07-2.11-4.71-2.99-.48-.26-1.31.05-1.96.18-16.33,3.13-32.66,6.27-48.99,9.4-6.37,1.22-12.77,2.25-19.1,3.66-2.78.62-4.18-.16-5.53-2.6-5-9.03-10.47-17.82-15.3-26.94-3.59-6.77-7.71-12.77-15.01-16.58,34.07-5.42,68.14-10.83,102.21-16.25.03.12.06.24.09.36-19.36,5.71-38.72,11.42-58.86,17.36,5.62,10.89,10.7,20.96,16.11,30.85.59,1.07,3.19,1.62,4.76,1.47,10.59-1.04,21.16-2.32,31.72-3.57,3.56-.42,7.1-.98,11.47-1.6-3.67-8.78-6.99-16.71-10.59-25.31,6.64,1.24,12.03,2.17,14.78,9.24,4.11,10.53,9.19,20.69,14.18,30.85.92,1.87,3.24,4.05,5.13,4.27,9.56,1.11,10.17,1.28,15.55,10.55-7.24,5.36-14.53,10.79-21.85,16.18-13.13,9.7-26.24,19.44-39.46,29.02-2.73,1.98-3.43,3.8-2.17,7.09,14.79,38.72,29.09,77.64,44.38,116.16,3.47,8.75,10.25,16.2,15.04,23.53-6.2-5.8-13.11-12.19-19.91-18.69-1.29-1.24-2.36-2.82-3.18-4.42-21.03-41.24-42.02-82.5-63.01-123.77-.37-.73-.66-1.5-.57-1.3,4.34-1.92,8.73-3.35,12.6-5.64,20.35-12.04,40.58-24.3,60.84-36.51,1.37-.82,2.62-1.84,3.93-2.77-.15-.56-.29-1.13-.44-1.69Z"/>
  <path d="M267.67.04c36.67,0,73.01-.02,109.36.06,2.06,0,4.54.23,6.11,1.35,27.38,19.55,54.64,39.26,82.81,59.56-5.65,0-10.35.41-14.94-.13-3.44-.4-5.66.39-7.71,3.09-11.18,14.73-22.57,29.3-33.64,44.11-2.45,3.28-4.69,4.28-8.75,3.15-39.9-11.18-79.85-22.17-119.79-33.21-1.92-.53-3.88-1.56-5.76-1.43-1.4.1-3.07,1.45-3.87,2.72-.32.51,1.1,2.96,2.18,3.37,5.6,2.14,11.34,3.89,17.02,5.8,33.16,11.09,66.32,22.2,99.5,33.24,2.44.81,5.06,1.11,7.6,1.66-18.43,24-37.18,48.42-55.93,72.84-3.75,4.89-8.07,9.44-11.18,14.71-8.07,13.67-22.02,19.73-34.03,27.82,24.36-32.06,42.54-68.26,64.24-102.23,1.23-1.92,2.21-4,3.62-6.56-5.9-2.65-11.3-5.13-16.75-7.51-22.9-9.98-45.86-19.83-68.7-29.94-8.86-3.92-17.73-1.77-26.61-1.97-.14.47-.28.93-.42,1.4.93.75,1.78,1.63,2.8,2.23,22.62,13.12,45.23,26.27,67.96,39.21,2.37,1.35,5.47,1.42,8.56,2.17-6.35,12.55-12.91,25.61-19.54,38.64-13.83,27.16-27.82,54.25-41.47,81.5-3.21,6.4-7.15,11.88-12.7,16.39-4.07,3.31-7.74,7.12-11.94,11.05.13-.91.06-1.3.23-1.48,13.25-14.66,18.4-33.3,25.18-51.14,10.82-28.48,21.52-57,32.46-85.43,1.32-3.44.8-5.3-2.16-7.45-19.28-13.99-38.43-28.16-57.62-42.29-1.46-1.07-2.83-2.26-4.49-3.58,3.98-5.37,7.13-11.11,15.36-9.82,1.5.24,4.12-1.92,5.06-3.62,5.38-9.77,10.35-19.77,15.58-29.62,4.65-8.76,4.72-8.73,15.92-11.25-4,8.53-7.74,16.5-11.96,25.49,5.24.95,9.71,1.79,14.18,2.58,9.5,1.68,18.98,3.43,28.51,4.93,1.34.21,3.67-.4,4.19-1.36,5.73-10.68,11.19-21.5,17.25-33.31-19.91-5.88-39.1-11.54-58.29-17.21l.08-.44c33.9,5.38,67.79,10.77,102.43,16.27-16.6,9.3-20.6,27.15-30.1,40.99-3.02,4.4-5.23,6.42-11.02,5.11-21.41-4.85-42.96-9.04-64.48-13.38-1.49-.3-3.24-.22-4.62.31-.67.26-1.37,2.31-1.01,2.95.54.95,1.94,1.65,3.11,1.95,14.99,3.86,30,7.66,45.01,11.43,18.24,4.57,36.53,8.99,54.73,13.73,3.6.94,5.47.08,7.3-2.99,9.75-16.3,19.61-32.53,29.56-48.7,1.68-2.72,1.37-4.34-1.17-6.2-11.7-8.55-22.94-17.82-35.14-25.58-4.65-2.96-11.4-2.94-17.27-3.63-20.63-2.45-41.3-4.65-61.96-6.89-10.84-1.18-21.7-2.24-32.87-3.39Z"/>
  <path d="M233.06,232.69c-8.58-9.63-16.93-18.44-24.52-27.86-2.33-2.89-2.6-7.46-3.75-11.28-5.29-17.69-10.47-35.41-15.89-53.06-.97-3.17-.51-5.18,2.02-7.37,12.83-11.13,25.55-22.4,38.22-33.72,2.59-2.32,4.48-2.99,7.48-.25,12.68,11.56,25.56,22.89,38.46,34.2,2.55,2.24,3.36,4.35,2.28,7.81-6.32,20.32-12.39,40.73-18.55,61.1-.29.95-.5,2.06-1.12,2.76-8.01,9.08-16.09,18.09-24.65,27.68ZM259.8,142.7c-.17-.44-.33-.88-.5-1.32-8.6,1.33-17.21,3.75-25.8,3.69-8.6-.05-17.19-2.57-25.79-4.01-.13.5-.26,1-.38,1.49,5.18,2.53,10.24,5.32,15.56,7.51,3.9,1.6,5.66,4.08,5.92,8.18.69,10.77,1.51,21.53,2.37,32.28.29,3.62.83,7.23,1.25,10.84.43-.01.87-.02,1.3-.03.35-1.91.88-3.8,1.03-5.72.82-10.43,1.73-20.86,2.23-31.31.35-7.35,1.4-13.79,10.19-15.56,2.07-.41,3.98-1.66,5.92-2.6,2.26-1.1,4.47-2.29,6.7-3.44Z"/>
  <path d="M231.4,23.81c4.67,4.35,5.84,9.13,6.2,14.46.89,13.08,2.56,26.12,2.84,39.2.07,3.08-4.09,6.25-6.36,9.47-6.33-3.84-10.38-7.28-9.37-15.23,1.57-12.33,1.36-24.87,2.49-37.27.32-3.55,2.66-6.91,4.19-10.62Z"/>
</svg>
