<?xml version="1.0" encoding="UTF-8"?>
<svg id="Layer_1" data-name="Layer 1" xmlns="http://www.w3.org/2000/svg" viewBox="0 0 301.34 300.79">
  <defs>
    <style>
      .cls-1 {
        stroke-width: 0px;
      }
    </style>
  </defs>
  <path class="cls-1" d="M118.81,113.64h19.95v-53.41H50.23c-.14-.45-.29-.9-.43-1.35,23.75-25.75,53.1-40.98,88.23-43.98,44.84-3.84,82.57,11.46,113.13,45.08h-7.04c-25.48,0-50.96.08-76.44-.11-4.21-.03-5.75.89-5.66,5.43.3,14.47.12,28.95.12,43.42v4.84h20.28v-20.58c0-8.34,4.15-12.51,12.44-12.53,22.61-.02,45.23.05,67.84-.12,3.66-.03,5.61,1.25,7.38,4.41,45.01,80.55-4.27,183.93-95.25,199.67-73.12,12.65-142.39-33.69-157.42-105.61-6.85-32.79-2.23-64.11,13.57-93.75,1.77-3.32,3.75-4.76,7.65-4.72,25.03.19,50.06.2,75.08.05,3.86-.02,5.29.95,5.18,5.02-.28,9.31-.09,18.64-.09,28.25h0ZM145.44,266.1c.17-1.81.26-2.38.27-2.95.04-42.83.04-85.65.14-128.49,0-3.34-1.39-4.03-4.34-3.99-10.7.12-21.44-.49-32.11.2-8.83.57-15.69-1.26-20.71-9.11-2.57-4.02-6.34-7.27-10.54-11.95h34.54c-4.33-6.12-8.13-11.31-11.72-16.67-1.68-2.51-3.67-3.44-6.7-3.42-18.85.13-37.7.06-56.55.09-1.12,0-2.23.24-3.71.4.46.93.61,1.53.97,1.94,16.99,18.97,33.96,37.98,51.1,56.81,1.2,1.32,3.64,2.09,5.52,2.14,9.49.22,19,.11,28.5.14,1.6,0,3.19.14,4.86.23v58.85c-2.61-2.98-4.43-5.35-6.56-7.43-3.45-3.38-4.71-7.21-4.49-12.13.43-9.14.12-18.32.12-27.56h-20.38c0,13.69-.07,26.95.1,40.18.02,1.44,1.17,3.05,2.18,4.25,6.46,7.76,13.03,15.43,19.56,23.14,9.73,11.46,19.44,22.94,29.96,35.33h0ZM222.91,110.05c-5.87,6.55-10.72,12.3-15.99,17.64-1.57,1.59-4.28,2.83-6.49,2.88-13.41.27-26.83.27-40.24.07-3.8-.05-4.85,1.19-4.84,4.9.11,41.14.06,82.29.06,123.44v7.24c2.19-2.41,3.41-3.67,4.55-5.01,12.37-14.59,24.29-29.6,37.26-43.64,7.62-8.25,11.81-16.63,10.56-28.1-.93-8.6-.18-17.37-.18-26.35h-20.33c0,8.96-.76,17.62.2,26.08,1.11,9.79-5.75,14.26-11.23,21.28v-59.26h4.72c9.49,0,18.99.16,28.48-.17,2.23-.08,4.99-1.32,6.48-2.96,16.63-18.26,33.07-36.71,49.54-55.12.64-.71,1.1-1.59,1.87-2.72-1.03-.21-1.57-.43-2.13-.43-19.9-.02-39.79-.04-59.68,0-1,0-2.48.03-2.94.64-4.64,6.15-9.12,12.43-14.3,19.58h34.6v.02Z"/>
</svg>