<?xml version="1.0" encoding="UTF-8"?>
<svg id="Layer_1" data-name="Layer 1" xmlns="http://www.w3.org/2000/svg" viewBox="0 0 555.66 462.77">
  <defs>
    <style>
      .cls-1, .cls-2 {
        stroke-width: 0px;
      }

      .cls-2 {
        fill: #fff;
      }
    </style>
  </defs>
  <path class="cls-2" d="M425.17,190.05c-2.74-.24-4.1-.47-5.45-.47-41.56,0-83.12.01-124.67.06-10.46.01-13.34,3.11-13.34,13.74.01,37.29,0,74.58-.04,111.87,0,9.09-3.87,12.86-13.05,12.88-7.74.01-15.49.18-23.23-.07-8.5-.27-17.23.16-25.42-1.68-17.69-3.96-33.46-12.46-46.98-24.55-21.43-19.16-35.39-42.54-40.24-71.33-2.44-14.5-1.61-28.35,2.09-42.45,4.66-17.72,13.56-32.91,25.85-46.2,10.3-11.14,22.39-19.96,36.14-26.53,16.93-8.08,34.51-13.23,53.45-13.22,52.78.05,105.56-.03,158.34.1,4.33.01,5.61-1.22,5.58-5.59-.19-25.91-.09-51.83-.1-77.74q0-6.74-6.68-6.75c-62.1,0-124.2,0-186.3.01-5.69,0-11.48-.48-17.04.42-12.63,2.05-25.16,4.75-37.7,7.32-14.53,2.98-27.91,9.08-41.04,15.69-13.34,6.71-25.69,14.92-37.32,24.35-19.13,15.51-35,33.85-46.92,55.22-6.74,12.09-12.18,25.11-16.5,38.27-4.21,12.79-7.97,26.17-8.87,39.5-1.62,24.1-2.79,48.46,3.28,72.31,3.03,11.89,5.83,23.9,9.78,35.49,9.06,26.63,23.81,50.06,42.88,70.59,21.71,23.38,47.75,40.64,77.81,51.48,9.52,3.43,19.52,5.54,29.21,8.54,2.78.86,4.84,1.88,7.43-.74,21.26-21.52,42.71-42.86,64-64.35,23.01-23.21,45.83-46.61,68.91-69.77,33.74-33.86,67.62-67.56,101.43-101.34,1.31-1.31,2.54-2.7,4.74-5.06ZM541.25,265.51c-2.28-.15-3.51-.3-4.75-.3-55.62,0-111.24.13-166.86-.1-6.88-.03-12.7,4.88-12.67,12.79.26,55.62.16,111.24.18,166.86,0,1.67.14,3.34.27,6,61.53-62.01,122.32-123.27,183.83-185.26Z"/>
  <path class="cls-1" d="M425.17,190.05c-2.21,2.36-3.43,3.76-4.74,5.06-33.81,33.78-67.7,67.49-101.43,101.34-23.07,23.15-45.89,46.55-68.91,69.77-21.3,21.48-42.75,42.82-64,64.35-2.59,2.62-4.65,1.6-7.43.74-9.69-3-19.69-5.11-29.21-8.54-30.06-10.83-56.1-28.1-77.81-51.48-19.06-20.53-33.82-43.96-42.88-70.59-3.95-11.6-6.76-23.6-9.78-35.49-6.07-23.85-4.89-48.21-3.28-72.31.89-13.33,4.66-26.71,8.87-39.5,4.33-13.16,9.77-26.18,16.5-38.27,11.92-21.38,27.79-39.72,46.92-55.22,11.63-9.43,23.98-17.64,37.32-24.35,13.14-6.61,26.51-12.71,41.04-15.69,12.54-2.57,25.07-5.27,37.7-7.32,5.56-.9,11.35-.42,17.04-.42,62.1-.02,124.2-.01,186.3-.01q6.67,0,6.68,6.75c0,25.91-.1,51.83.1,77.74.03,4.37-1.25,5.6-5.58,5.59-52.78-.13-105.56-.06-158.34-.1-18.93-.02-36.52,5.13-53.45,13.22-13.75,6.56-25.84,15.39-36.14,26.53-12.28,13.29-21.19,28.48-25.85,46.2-3.71,14.1-4.54,27.96-2.09,42.45,4.85,28.79,18.81,52.17,40.24,71.33,13.52,12.09,29.29,20.6,46.98,24.55,8.19,1.83,16.93,1.4,25.42,1.68,7.73.25,15.48.08,23.23.07,9.18-.02,13.04-3.79,13.05-12.88.04-37.29.05-74.58.04-111.87,0-10.63,2.88-13.72,13.34-13.74,41.56-.05,83.12-.06,124.67-.06,1.36,0,2.71.22,5.45.47Z"/>
  <path class="cls-1" d="M541.25,265.51c-61.51,61.99-122.3,123.25-183.83,185.26-.12-2.67-.26-4.33-.27-6-.03-55.62.08-111.24-.18-166.86-.04-7.91,5.78-12.82,12.67-12.79,55.62.23,111.24.1,166.86.1,1.24,0,2.47.15,4.75.3Z"/>
</svg>