<?xml version="1.0" encoding="UTF-8"?>
<svg id="Layer_1" data-name="Layer 1" xmlns="http://www.w3.org/2000/svg" viewBox="0 0 555.66 462.77">
  <defs>
    <style>
      .cls-1 {
        stroke-width: 0px;
      }
    </style>
  </defs>
  <path class="cls-1" d="M314.27,325.65c7.06-9.95,13.84-19.46,20.58-29.01,13.99-19.81,26.8-40.59,42.22-59.22,25.99-31.41,60.1-34.59,97.05-23.63,1.25.37,2.43,1.16,3.69,1.29,1.88.19,3.81-.02,5.72-.06-.57-2.1-.45-5.21-1.81-6.13-8.37-5.66-16.45-12.7-25.79-15.83-34.6-11.58-67.48-6.11-94.61,18.16-18.75,16.77-34.64,36.88-50.96,56.21-23.25,27.52-46.85,54.44-80.84,69.24-26.58,11.57-54.36,16.33-83.32,13.68-28.02-2.57-54.75-9.68-77.85-26.14-10.26-7.31-18.59-17.36-27.6-26.37-1.64-1.64-2.3-4.26-2.15-7.47,1.66.98,3.35,1.91,4.98,2.93,31.34,19.72,65.08,31.46,102.52,28.53,35.37-2.77,66.51-15.44,90.44-42.83.86-.99,2.04-1.86,2.49-3.01.96-2.48,1.53-5.11,2.26-7.67-2.42.22-5.04-.09-7.22.75-27.01,10.4-54.99,10.87-83.35,8.92-25.37-1.75-49.56-7.78-72.37-18.85-18.6-9.03-34.7-21.29-45.7-39.29-1.36-2.22-2.44-4.63-3.52-7.01-.4-.87-.42-1.91-.9-4.25,4.12,1.72,7.36,2.91,10.47,4.39,43.56,20.81,88.68,24.5,135.31,12.66,33.85-8.6,62.58-27.13,91.21-46.11,18.48-12.24,37.18-24.38,56.76-34.69,32.18-16.93,66.55-18.39,101.59-10.41,1.28.29,2.56.97,3.8.88,1.91-.14,3.79-.78,5.68-1.21-.73-1.77-.95-4.41-2.26-5.17-8.76-5.06-17.24-11.58-26.75-14.18-30.09-8.22-60.15-5.09-88.15,7.82-29.12,13.43-57.09,29.37-85.52,44.27-30.06,15.76-61.15,27.44-95.96,23.97-21.02-2.09-40.51-8.02-55.51-24.07-1.32-1.41-2.24-3.2-4.05-5.85,2.46.11,3.76-.19,4.72.26,38.78,17.99,76.08,10.94,111.16-9.1,31.25-17.85,60.73-38.79,91.41-57.67,24.94-15.35,51.93-26.18,81.28-29.03,29.9-2.89,59.83-2.1,87.96,10.13,28.92,12.58,45.45,35.1,49.26,66.51,4.82,39.82,11.89,79.12,25.67,116.95,2.52,6.91,1.25,10.95-6.31,13.79-16.28,6.13-15.8,6.47-13.47,24.45,3.07,23.72,3.49,47.2-4.29,70.5-11.58,34.71-53.27,38.34-74.99,20.9-8.33-6.69-16.27-13.99-23.59-21.76-22.85-24.27-49.67-39.73-83.92-39.69-1.04,0-2.08-.16-3.11-.35-.49-.09-.93-.44-2.33-1.15Z"/>
</svg>