<?xml version="1.0" encoding="UTF-8"?>
<svg id="Layer_1" data-name="Layer 1" xmlns="http://www.w3.org/2000/svg" viewBox="0 0 221.92 108.52">
  <defs>
    <style>
      .cls-1 {
        stroke-width: 0px;
      }
    </style>
  </defs>
  <path class="cls-1" d="M0,42.28c1.09-2.53,2.17-5.06,3.47-8.08.61,1.61,1.03,2.74,1.69,4.48,2.2-3.14,4.06-5.89,6.01-8.57,1.71-2.36,3.52-4.65,4.77-7.45,1.4-1.6,2.83-3.17,4.18-4.8,2.94-3.56,5.24-7.12,9.87-9.69,4.96-2.76,8.5-5.73,13.92-2.17.25.17.69.3.93.2,7.21-3.08,13.5,1.63,20.24,2.23,4.17.37,9.24.51,12.5-1.52,3.65-2.26,6.07-.82,9.2-.42,2.17.28,5.78.16,6.54-1.11,3.85-6.4,9.7-5.56,15.41-4.98,5.39.55,10.71,1.78,16.08,2.51,1.19.16,2.49-.55,3.75-.76,1.76-.29,4.04-1.29,5.2-.57,4.28,2.67,8.28,1.28,12.46.18,1.22-.32,2.65-.33,3.88-.04,4.72,1.12,9.41,2.42,13.97,3.62-.56.16-1.7.58-2.88.81-4.51.87-9,1.93-13.55,2.43-3.28.36-6.94-.97-9.92.02-7.57,2.51-14.84,2.77-22.44.35-1.83-.58-4.27.49-6.37,1.05-3.8,1.01-7.64,1.99-11.3,3.4-3.33,1.29-6.52,3.01-9.65,4.76-3.12,1.75-5.6,3.83-9.87,1.54-2.34-1.25-6.27.5-9.56,1.07-2.3.32-4.6.67-6.9.95-3.6.45-7.26.6-10.78,1.38-1.81.4-4.12,1.47-4.94,2.95-3.43,6.09-8.75,9.06-15.21,10.77-1.98.53-4.41,1.4-5.49,2.93-2.99,4.23-7.81,7.29-8.51,13.12-.25,2.05-1.4,4.03-2.34,5.95-3.14,6.36-6.36,12.67-10.53,19.1-.17-3.25-.34-6.49-.5-9.74-.14.34-.29.68-.43,1.03-.97-1.65-1.93-3.29-2.9-4.94,0-7.33,0-14.67,0-22Z"/>
  <path class="cls-1" d="M32.45,107.72c-2.73-8.72-8.95-16.73-4.6-25.18-.72-3.36-1.98-5.85-1.58-8.03,1.49-8.15,3.28-16.08,12.55-19.75,2.71-1.07,4.43-4.93,6.31-7.72,3.99-5.91,7.02-12.83,16.06-12.5.11.23.65,1.38,1.43,3.05,3.61-1.02,7.16-2.04,10.72-3.03,1.33-.37,3.34-1.4,3.93-.87,3.15,2.79,5.59.2,8.53-.21,6.51-.91,12.34-5.42,19.44-3.44,1.57.44,3.66-1.14,5.54-1.64,5.24-1.39,10.44-3.28,15.78-3.92,8.47-1.02,16.58-2.61,23.82-7.45,1.41-.94,3.42-1.92,4.94-1.65,9.01,1.61,17.38-.49,25.92-3.13,8.36-2.58,17.09-3.91,25.6-6.02,4.87-1.21,9.63-2.87,14.44-4.33.22.58.43,1.16.65,1.73-4.96,2-9.95,3.95-14.88,6.03-2.22.93-4.3,2.19-6.51,3.14-4.11,1.76-7.35,4.77-12.79,4.33-4.55-.37-9.38,2.75-14.1,4.26-2.49.79-5.03,1.43-7.54,2.16-8.58,2.5-16.5,6.35-23.49,11.96-3.16,2.53-5.93,5.56-9.22,7.89-1.4.99-4.02,1.58-5.47.95-7.72-3.35-14.13,1.32-20.95,3.11-1.25.33-1.64,3.27-2.98,4.09-3.5,2.15-7.29,3.84-11.02,5.62-2.34,1.11-4.77,2.04-7.54,3.22-3.86-2.62-12.79,1.68-15.67,4.81-3.22,3.49-5.81,7.6-12.21,7.12-4.18-.32-8.54,2.87-10.47,7.58-.36.89-.36,2.39-.95,2.66-5.88,2.65-7.04,8.84-9.94,13.56-2.07,3.36-2.55,7.7-3.73,11.61Z"/>
  <path class="cls-1" d="M80.55,107.09c-8.83-5.89-17.72-9.93-22.08-18.96,6.35,3.41,13.09,5.38,20.15,4.08,3.14-.58,5.97-2.97,8.9-4.61,1.59-.89,2.96-2.36,4.64-2.85,13.52-3.95,23.43-13.7,34.7-21.27,5.88-3.95,12.03-7.48,18.06-11.2.49.64.98,1.28,1.47,1.92-4.59,3.87-9.25,7.65-13.72,11.64-2.45,2.18-4.69,4.63-6.81,7.14-2.5,2.97-4.35,6.61-7.22,9.11-3.72,3.23-4.23,6.05-3.6,7.02-2.57,4.03-4.41,8.91-7.88,11.89-6.26,5.37-13.37,9.87-22.51,6.17-1.53-.62-3.53-.09-4.1-.09Z"/>
</svg>