<?xml version="1.0" encoding="UTF-8"?>
<svg id="Layer_1" data-name="Layer 1" xmlns="http://www.w3.org/2000/svg" viewBox="0 0 285.39 45.67">
  <defs>
    <style>
      .cls-1 {
        stroke-width: 0px;
      }
    </style>
  </defs>
  <path class="cls-1" d="M25.23,24.22q-11.53-.02-11.9,11.73c-.03,1,.16,2.07-.14,2.98-.64,1.94-1.23,5.17-2.38,5.42-3.13.68-6.55.21-9.82-.14-.45-.05-1.06-1.99-.98-3.02C.95,28.59,1.81,15.96,3.12,3.39,3.67-1.85,8.27.65,11.16.28c2.65-.34,4.58.73,4.43,3.91-.13,2.83-.59,5.73-.14,8.46.23,1.39,2.08,3.47,3.34,3.57,4.96.42,10,.44,14.96,0,1.37-.12,3.16-2.1,3.68-3.6.74-2.13.67-4.6.6-6.92-.11-3.73,1.29-5.41,5.23-5.48,8.33-.15,8.31-.1,7.5,8.2-1.02,10.43-1.84,20.9-2.33,31.36-.18,3.89-1.38,5.55-5.29,5.1-1.48-.17-3-.11-4.49-.02-3,.18-3.71-1.35-3.44-4.04.41-3.97.47-7.98.97-11.94.46-3.62-1.11-4.85-4.47-4.7-2.16.1-4.33.02-6.5.02Z"/>
  <path class="cls-1" d="M160.33,44.91c.64-10.06,1.16-19.33,1.91-28.58.08-.93,1.56-2.46,2.43-2.49,9.29-.33,18.59-.65,27.88-.45,4.99.11,7.37,3.55,7.2,8.44-.24,6.49-.59,12.97-1.1,19.45-.47,5.93-5.17,3.11-8.13,3.56-3.53.53-3.54-2.1-3.4-4.57.32-5.48.73-10.96.96-16.45.22-5.23-3.45-5.83-7.39-5.8-3.74.03-7.47-.13-7.43,5.51.04,5.48-.91,10.97-.83,16.45.06,4.12-1.58,5.34-5.35,4.98-2.09-.2-4.21-.04-6.74-.04Z"/>
  <path class="cls-1" d="M257.14,30.84c1.51,8.51,5.57,9.62,26.16,8.06,1.18,3.6-.64,5.1-3.87,5.7-7.78,1.43-15.51,1.54-23.19-.68-5.27-1.52-9.66-4.34-10.91-9.87-1.4-6.21.27-11.93,5.2-16.29,6.99-6.18,20.76-7.4,28.61-2.44,1.77,1.12,3.77,2.65,4.51,4.47,1.19,2.92,2,6.3,1.65,9.34-.1.84-4.81,1.56-7.43,1.65-6.77.23-13.55.08-20.74.08ZM274.97,25.21c.18-5.1-2.21-7.65-7.27-8.05-5.04-.4-8.83,2.58-9.72,8.05h16.99Z"/>
  <path class="cls-1" d="M141.43,30.86c-3.49,0-6.99-.11-10.47.07-1.15.06-2.98.66-3.2,1.41-.3.98.34,2.96,1.18,3.43,2.82,1.56,5.82,3.32,8.92,3.71,4.05.51,8.26-.29,12.4-.34,1.29-.01,2.58.59,3.88.92-.76,1.31-1.29,3.53-2.31,3.78-10.56,2.59-21.23,3.06-30.93-2.59-6.88-4.01-7.72-14.03-2.55-20.7,6.79-8.77,23.23-11.16,32.14-4.5,1.79,1.34,3.4,3.27,4.39,5.27,3.45,6.96,1.74,9.53-5.97,9.54-2.49,0-4.99,0-7.48,0v.02ZM128.27,25.63c5.16,0,10.09.12,15-.04,3.08-.1,3-2.18,1.85-4.2-2.19-3.85-5.79-4.83-9.83-3.92-3.9.87-7.07,2.73-7.02,8.17Z"/>
  <path class="cls-1" d="M239.42,18.27c-5.45-.27-10.9-.73-16.35-.69-1.47.01-2.93,1.53-4.4,2.36,1.14,1.1,2.09,2.55,3.44,3.23,4.46,2.23,9.36,3.72,13.5,6.41,2.45,1.59,5.58,5.28,5.15,7.35-.55,2.63-4.23,6.26-6.85,6.51-9.03.87-18.18.51-27.28.41-.81,0-1.61-1.57-2.41-2.41,1.13-.94,2.24-2.67,3.38-2.68,4.64-.04,9.29.66,13.93.62,1.72-.01,3.43-1.3,5.14-2.01-1.37-1.24-2.55-2.86-4.14-3.65-4.02-1.98-8.58-3.07-12.23-5.54-2.39-1.62-4.56-4.86-5.06-7.69-.69-3.87,2.97-6.32,6.21-6.57,8.71-.67,17.49-.65,26.23-.5,1.08.02,2.12,2.54,3.18,3.9-.48.32-.96.64-1.43.95Z"/>
  <path class="cls-1" d="M111.15,13.62c-.42,2.06-.67,3.3-.95,4.64-7.24.56-14.52-2.92-22.72,1.35,2.57,1.77,4.1,3.12,5.87,3.99,4.17,2.07,8.47,3.88,12.68,5.86,3.21,1.51,6.23,3.96,5.06,7.58-.82,2.53-3.77,5.93-6.03,6.14-9.19.85-18.48.7-27.73.65-.79,0-1.56-1.95-2.35-3,1.08-.73,2.17-2.1,3.25-2.09,4.64.03,9.28.64,13.92.65,1.62,0,3.24-1.08,4.86-1.66-1.26-1.3-2.3-3.05-3.83-3.82-4-2.01-8.59-3.06-12.23-5.54-2.54-1.73-5.58-5.37-5.33-7.84.25-2.51,3.9-5.81,6.71-6.72,9.22-2.98,18.69-1.48,28.8-.19Z"/>
  <path class="cls-1" d="M62.47,44.85c-7.65,0-7.49.01-6.86-6.38.68-6.75.89-13.55,1.56-20.31.18-1.79,1.08-4.84,2.01-4.98,3.33-.51,6.82-.07,10.24.18.26.02.64,1.43.59,2.18-.57,8.43-1.22,16.85-1.84,25.27-.35,4.76-3.82,4.1-5.7,4.05Z"/>
  <path class="cls-1" d="M63.63,8.24c-1.82-1.3-4.97-2.39-5.2-3.93C57.77-.05,61.49.09,64.49.21c2.6.11,6.18-.9,6.09,3.6-.09,4.51-3.74,3.07-6.95,4.43Z"/>
</svg>