<?xml version="1.0" encoding="UTF-8"?>
<svg id="Layer_1" data-name="Layer 1" xmlns="http://www.w3.org/2000/svg" viewBox="0 0 455.37 143.94">
  <defs>
    <style>
      .cls-1 {
        stroke-width: 0px;
      }
    </style>
  </defs>
  <path class="cls-1" d="M14.96,19.71c-4.73-1.8-10.68-2.29-13.07-5.46C-.55,11.01.51,5.14,0,0h39.01v54.26c2.4-1.71,3.94-2.8,5.47-3.91,13.86-10.02,33-10.5,44.73-1.11,7.95,6.36,11.68,15.03,12.1,24.83.58,13.47.33,26.98.43,40.47.02,3.14,0,6.29,0,9.25q15.88,4.93,14.33,19.45h-38.27c0-2.06,0-4.02,0-5.98,0-16.99,0-33.99,0-50.98,0-2.17.02-4.33-.05-6.5-.57-15.92-12.27-23.03-26.92-16.37-1.21.55-2.38,1.18-3.55,1.83-5.58,3.08-8.71,6.92-8.34,14.21.75,14.76.22,29.59.22,43.86,4.91,1.91,10.86,2.45,13.18,5.63,2.41,3.3,1.31,9.16,1.78,14.3H.12c.44-4.91-.66-10.84,1.76-14.28,2.25-3.19,8.26-3.73,13.08-5.62V19.71Z"/>
  <path class="cls-1" d="M122.85,93.7c-.38-27.69,13.53-46.83,38.12-51.44,30.55-5.73,58.78,9.81,60.27,46.93.63,15.86-2.49,30.79-14.82,41.87-15.65,14.06-34.22,15.75-53.32,9.22-18.86-6.45-27.7-21.28-29.82-40.54-.26-2.31-.33-4.65-.43-6.04ZM197.27,92.45c-1.2-6.13-1.8-12.48-3.75-18.38-3.26-9.88-10.4-14.42-20.89-14.52-10.85-.1-18.4,4.34-21.85,14.02-4.49,12.61-4.54,25.53.17,38.11,3.48,9.31,11.13,13.71,21.7,13.5,10.71-.2,17.81-4.72,20.95-14.44,1.86-5.77,2.45-11.95,3.68-18.29Z"/>
  <path class="cls-1" d="M368.48,41.11c31.99-.55,52.95,23.48,49.54,56.8-2.48,24.21-14.6,39.18-35.85,44.26-22.31,5.33-44.95-2.48-54.98-20.56-10.97-19.77-10.65-40.35.82-59.94,7.82-13.37,22.65-20.25,40.47-20.55ZM394.05,93.16c-1-6.29-1.42-11.81-2.81-17.06-2.76-10.39-10.13-16.04-20.55-16.5-11.41-.51-19.44,3.94-22.97,13.79-4.59,12.77-4.63,25.83.22,38.57,3.41,8.98,11,13.34,21.38,13.24,10.44-.1,17.83-4.54,20.91-13.79,2.02-6.06,2.68-12.58,3.83-18.25Z"/>
  <path class="cls-1" d="M310.3,78.4c-15.14,1.73-15.63,1.46-16.78-12.68-.28-3.45-1.33-4.77-4.8-5.44-18.25-3.54-29.97,3.8-32.44,22.16-1.11,8.19-.69,17.1,1.33,25.11,4.22,16.72,21.67,22.87,36.45,13.81,1.27-.78,2.47-1.69,3.7-2.55,5.3-3.69,7.36-3.43,11.32,1.47,1.77,2.19,3.51,4.41,5.47,6.88-8.93,10.54-20.46,15.28-33.7,16.26-26.35,1.95-45.89-14.25-49.49-40.75-1.69-12.47-.76-24.66,4.6-36.14,8.94-19.17,29.64-28.85,52.41-24.55,6.19,1.17,12.28,3,18.28,4.93,1.47.47,3.43,2.47,3.48,3.82.31,9.12.16,18.25.16,27.69Z"/>
  <path class="cls-1" d="M455.37,129.07c0,8.43-6.07,14.55-14.36,14.5-8.09-.05-14.59-6.52-14.65-14.6-.06-8.06,6.43-14.67,14.5-14.75,8.53-.09,14.52,6.04,14.51,14.85Z"/>
</svg>