<?xml version="1.0" encoding="UTF-8"?>
<svg id="Layer_1" data-name="Layer 1" xmlns="http://www.w3.org/2000/svg" viewBox="0 0 2488.62 516.06">
  <defs>
    <style>
      .cls-1 {
        stroke-width: 0px;
      }
    </style>
  </defs>
  <path class="cls-1" d="M498.27,398.18c18.97,17.89,40.39,26.07,64.1,29.29,46.4,6.3,87.71-5.97,124.37-34.49,6.01-4.68,10.01-4.93,16.15.03,19.67,15.89,39.94,31.04,62.87,48.7-6.12,4.91-11.65,9-16.78,13.53-74.54,65.73-199.71,79.94-286.5,31.62-59.64-33.21-92.88-84.67-98.9-152.56-9.74-109.91,55.51-198.69,163.3-219.22,66.47-12.66,129.44-1.98,182.21,44.45,35.77,31.48,53.12,73.04,61.52,119.03,1.24,6.81-3.12,7.86-7.55,9.7-63.34,26.24-126.66,52.53-189.98,78.81-24.49,10.17-48.98,20.36-74.82,31.1ZM468.57,327.61c62.07-25.76,123.04-51.06,184.82-76.7-10.88-22.34-26.29-38.31-48.38-47.1-56.45-22.47-120.2,12.27-134.29,72.99-3.79,16.33-5.46,32.76-2.16,50.81Z"/>
  <path class="cls-1" d="M2068.11,313.26c.09-99.94,73.8-184.98,172.9-199.43,71.13-10.37,134.98,5.36,187.47,55.83,46.21,44.43,64.88,100.03,59.13,163.73-8.6,95.33-86.26,170.49-183.66,180.42-77.46,7.89-143.22-15.57-193.29-76.49-29.38-35.74-42.57-77.84-42.56-124.05ZM2278.79,422.13c43.85.16,80.47-25.19,95.37-66.46,7.2-19.95,8.94-40.41,5.93-61.61-10.88-76.5-99.26-116.19-161.51-71.75-33.74,24.09-44.95,59.04-43.18,98.93,2.5,56.25,48.29,100.7,103.39,100.9Z"/>
  <path class="cls-1" d="M1452.38,516.06c-85.92-.68-161.37-48.52-192.94-122.9-50.34-118.61,20.24-252.18,147.1-277.33,73.81-14.63,140.76.52,196.21,52.82,47.44,44.74,66.26,101.31,60.01,166.1-9.07,94.12-85.84,168.61-182.99,179.03-9.11.98-18.26,1.53-27.39,2.28ZM1454.84,422.13c44.68-.23,81.05-26.45,95.48-68.94,6.62-19.52,7.94-39.37,5-59.85-10.48-72.96-93.33-113.23-155.65-74.78-37.86,23.36-50.72,59.89-48.94,102.45,2.38,56.8,48.72,101.41,104.11,101.13Z"/>
  <path class="cls-1" d="M808.84,508.71V118.17h107.81v52.76c4.42-4.75,7.08-7.6,9.73-10.46,64.33-69.44,186.35-65.59,244,7.76,20.01,25.46,31.11,54.83,31.49,86.85.98,82.96.43,165.93.46,248.9,0,1.24-.35,2.47-.65,4.49-2.74.24-5.49.69-8.23.69-30.08.05-60.15-.24-90.22.21-8.32.13-9.85-3.05-9.83-10.53.24-69.67-.82-139.35.49-209,.82-43.67-31.13-77.86-74.57-83.98-36.83-5.18-68.42,5.05-89.89,37.57-8.36,12.66-12.36,26.81-12.34,42.17.12,70.62-.18,141.24.31,211.85.07,10.08-3.14,12.1-12.37,11.93-28.48-.54-56.98-.18-85.47-.22-3.4,0-6.81-.29-10.71-.47Z"/>
  <path class="cls-1" d="M1866.28,381.03c18.98-52.11,37.36-102.57,55.75-153.03,12.56-34.46,25.05-68.94,37.89-103.29,1.07-2.87,4.57-6.88,6.98-6.9,39.23-.43,78.47-.31,118.82-.31-1.39,4.04-2.32,7.25-3.58,10.32-50.84,123.67-101.8,247.29-152.39,371.06-3.32,8.12-7.49,10.67-16.06,10.53-31.97-.52-63.96-.42-95.94-.05-7.62.09-11.66-1.9-14.75-9.48-50.73-124.06-101.82-247.97-152.82-371.92-1.19-2.88-2.2-5.84-3.7-9.82,3.68-.25,6.63-.63,9.58-.63,34.83-.04,69.67.16,104.5-.18,7.12-.07,10.33,2.1,12.82,8.98,29.81,82.65,59.99,165.17,90.09,247.72.64,1.76,1.41,3.48,2.84,7Z"/>
  <path class="cls-1" d="M352.78,409.07v100.14h-11.44c-109.85,0-219.7-.1-329.54.19C2.89,509.42-.02,507.35,0,497.94.29,335.82.28,173.69.01,11.57,0,2.34,2.65-.16,11.72,0c29.11.55,58.24.19,87.37.23,3.11,0,6.23.28,10.85.5v408.33h242.84Z"/>
</svg>