<?xml version="1.0" encoding="UTF-8"?>
<svg id="Layer_1" data-name="Layer 1" xmlns="http://www.w3.org/2000/svg" viewBox="0 0 1273.2 360">
  <defs>
    <style>
      .cls-1 {
        stroke-width: 0px;
      }
    </style>
  </defs>
  <path class="cls-1" d="M893,360c-11.99-2.68-24.38-4.21-35.89-8.24-55.29-19.33-91.12-76.23-85.36-134.36,6.07-61.22,50.3-108.59,111.02-117.98,32.54-5.04,62.89,1.83,90.66,19.68,1.5.96,3.01,1.91,5.41,3.42,0-3.93-.06-7,.01-10.07.14-5.77,3.25-9.19,8.87-9.25,12.83-.13,25.67-.14,38.5,0,6.21.07,8.95,3.49,8.95,10.61,0,52,0,103.99,0,155.99,0,25,0,50,0,75,0,7.67-2.83,10.61-10.51,10.66-11.67.09-23.33.09-35,0-7.98-.06-10.78-2.98-10.82-10.92-.02-2.78,0-5.56,0-9.06-5.3,3.17-9.86,6.11-14.62,8.69-15.24,8.28-31.47,13.44-48.8,15.01-1.48.13-2.95.53-4.42.8h-18ZM977.46,226.6c-.35-3.16-.69-8.15-1.52-13.05-.67-3.91-1.69-7.81-2.99-11.57-17.75-51.55-77.77-68.88-118.02-34.12-29.96,25.86-36.2,72.52-13.51,105.72,17.25,25.25,41.47,37.45,72.06,32.75,37.42-5.75,64.16-39.18,63.98-79.73Z"/>
  <path class="cls-1" d="M310,360c-12.44-2.9-25.53-4.2-37.2-8.98-51.03-20.91-80.01-59.26-83.74-114.44-4.62-68.33,43.3-126.55,111.16-137.3,71.08-11.26,139.34,39.58,148.79,111.24,1.36,10.31.68,20.9.83,31.36.02,1.6-.52,3.21-.85,5.1h-202.83c3.8,8.54,6.46,16.6,10.7,23.72,24.39,40.94,75.67,49.11,111.51,17.85,4.33-3.78,8.1-4.2,13.1-1.99,10.94,4.85,22.04,9.33,33.05,14.04,7.59,3.25,8.83,8.66,3.3,14.81-22.64,25.17-50.68,39.99-84.43,43.74-1.48.16-2.93.56-4.4.85h-19ZM388.72,198.86c-8.33-24.33-35.4-50.79-73.19-48.9-27.45,1.37-58.88,25.05-64.05,48.9h137.23Z"/>
  <path class="cls-1" d="M55,0c4.78,2.56,6.27,6.51,6.26,11.91-.13,91.64-.09,183.29-.09,274.93,0,2.15,0,4.3,0,7.07,2.18.1,4.09.25,6,.25,29.83.02,59.65,0,89.48.01,9.81,0,12.51,2.69,12.52,12.42.01,12.66.03,25.33,0,37.99-.03,7.8-3.04,10.89-10.92,10.9-48.99.04-97.97-.02-146.96.09-5.3.01-8.8-2.17-11.27-6.57V0h55Z"/>
  <path class="cls-1" d="M723.09,356.84c-12.33,0-24.67-.1-37,.03-9.44.1-17.08-3.38-23.31-10.45-63.52-72.13-127.07-144.23-190.61-216.34-5.95-6.75-12.04-13.38-17.76-20.31-1.41-1.71-2.79-4.84-2.12-6.48.62-1.52,3.99-2.66,6.16-2.67,26.5-.18,53-.21,79.5-.05,8.07.05,14.69,3.69,20.04,9.76,43.5,49.37,87.02,98.71,130.53,148.07,25.66,29.12,51.3,58.25,76.95,87.38.44.5,1.05.92,1.31,1.5.96,2.17,3.12,5.2,2.38,6.39-1.08,1.74-4.24,2.95-6.57,3.03-9.49.33-18.99.14-28.49.14-3.67,0-7.33,0-11,0ZM638,228.42c-.05-14.98-12.34-27.33-27.28-27.4-15.07-.07-27.59,12.5-27.55,27.68.03,14.93,12.38,27.26,27.33,27.3,15.24.04,27.55-12.3,27.5-27.58Z"/>
  <path class="cls-1" d="M1161.54,116.45c31.03-28.08,85.95-23.47,111.66,6.35-11.37,12.9-22.78,25.84-34.48,39.12-7.78-8.61-17.52-12.1-28.58-12.4-8.74-.24-16.78,2.11-24.17,6.7-13.92,8.64-20.69,21.81-22.81,37.49-1.22,9.04-1.87,18.23-1.92,27.36-.2,40.81-.08,81.62-.09,122.43,0,9.55-2.47,11.98-12.18,11.99-11.16,0-22.32.03-33.48,0-7.91-.03-10.93-2.88-10.97-10.8-.1-17.32-.04-34.65-.04-51.97,0-58.8,0-117.6,0-176.4,0-11.13,2.23-13.32,13.51-13.32,9.66,0,19.32,0,28.98,0,12.1,0,13.34,1.1,14.55,13.45Z"/>
  <path class="cls-1" d="M723.2,139.17c-21.48-.04-38.22-16.86-38.2-38.42.01-21.42,16.93-38.25,38.42-38.25,21.23,0,38.49,17.3,38.41,38.47-.08,21.26-17.25,38.23-38.63,38.2Z"/>
  <path class="cls-1" d="M634.5,164.95c.04-18.28,14.36-32.49,32.71-32.45,18.22.04,32.74,14.47,32.78,32.57.04,18.16-14.95,33.01-33.15,32.86-18.14-.15-32.38-14.68-32.33-32.98Z"/>
  <path class="cls-1" d="M582.15,286.99c.12,12.68-9.94,22.93-22.57,23.01-12.39.07-22.54-9.89-22.74-22.31-.21-12.83,9.52-22.94,22.29-23.18,12.66-.23,22.9,9.76,23.02,22.48Z"/>
  <path class="cls-1" d="M512.51,359c-10.25,0-18.32-8.04-18.34-18.29-.02-10.17,8.19-18.44,18.32-18.46,10.05-.01,18.31,8.28,18.35,18.44.04,10.18-8.09,18.3-18.33,18.3Z"/>
</svg>