<?xml version="1.0" encoding="UTF-8"?>
<svg id="Layer_1" data-name="Layer 1" xmlns="http://www.w3.org/2000/svg" viewBox="0 0 785.47 166.68">
  <defs>
    <style>
      .cls-1 {
        stroke: #000;
        stroke-miterlimit: 10;
        stroke-width: 5px;
      }
    </style>
  </defs>
  <path class="cls-1" d="M170.97,161.88h-19.36c-.17-2.85-.47-5.6-.47-8.35-.04-31.35.14-62.71-.15-94.06-.07-7.34-.85-14.87-2.71-21.95-3.05-11.61-15.38-17.64-26.11-12.13-7.21,3.7-14.62,9-19.16,15.51-7.44,10.67-12.61,22.92-18.75,34.51-2.24,4.22-.58,6.47,3.55,8.2,6.16,2.59,12.33,5.29,18.11,8.62,14.71,8.47,20.69,21.59,17.26,36.74-3.01,13.28-13.93,22.37-28.87,24.05-13.18,1.48-28.33-7.46-34.42-20.32-5.5-11.62-4.54-23.86-2.76-35.95.67-4.55-.47-6.91-3.87-9.59-5.62-4.42-11.04-9.19-15.95-14.38-4.7-4.97-8.62-10.67-14.16-17.64v106.43H2.5V7.55c6.35,0,12.76-.45,19.05.26,1.98.22,4.09,3.28,5.33,5.49,7.92,14.12,15.33,28.55,23.55,42.49,2.93,4.97,7.67,8.89,12.69,14.54,2.21-4.85,3.37-7.34,4.49-9.85,7.6-17.18,16.24-33.66,31.29-45.72,12.39-9.92,26.22-15.17,42.06-10.57,18.49,5.37,28.87,18.95,29.54,37.38,1.41,38.96,1.01,77.98,1.31,116.98,0,.91-.44,1.81-.84,3.34ZM77.86,101.97c-1.55,9.42-2.34,17.21,2.63,24.13,3.48,4.84,8.82,7.29,14.39,5.09,3.18-1.25,6.51-4.79,7.63-8.04,2.01-5.82-1.83-10-6.82-12.64-5.41-2.86-11.04-5.31-17.83-8.54Z"/>
  <path class="cls-1" d="M655.96,161.75h-19.98c-.35-3.99-.68-7.67-1.16-13.14-13.51,13.82-28.96,18.22-46.43,14.08-13.02-3.09-23.59-10.25-31.51-21.13-15.39-21.17-13.68-50.01,4.07-69.38,19.23-20.98,43.85-22.78,73.99-4.71V8.13h21v153.62ZM567.31,109.19c-.1,18.5,15.01,33.84,33.6,34.14,19.08.3,34.32-14.64,34.5-33.83.18-18.92-14.4-33.7-33.44-33.91-19.2-.21-34.56,14.68-34.65,33.6Z"/>
  <path class="cls-1" d="M401.91,161.72h-19.68c-.35-3.71-.7-7.42-1.21-12.77-13.97,13.72-29.71,18.09-47.66,13.35-12.77-3.37-22.95-10.65-30.57-21.31-14.78-20.7-12.99-49.52,3.98-68.26,19.18-21.16,42.84-23.13,74.61-5.48V8.03h20.52v153.69ZM348.76,75.59c-19.21-.37-34.67,14.18-35.2,33.13-.52,18.45,15.17,34.46,33.94,34.62,18.58.16,33.55-14.21,34.04-32.66.52-19.76-13.46-34.72-32.78-35.1Z"/>
  <path class="cls-1" d="M419.76,109.19c.06-30.49,24.2-54.57,54.73-54.59,30.23-.02,54.97,24.45,55.18,54.56.21,30.15-25.01,55.11-55.51,54.94-30.46-.17-54.45-24.39-54.39-54.91ZM474.37,75.59c-18.79.04-33.66,14.82-33.76,33.55-.1,18.89,15.29,34.36,34.03,34.21,18.46-.14,33.74-15.33,33.98-33.78.25-18.6-15.3-34.03-34.25-33.99Z"/>
  <path class="cls-1" d="M727.19,164.1c-30.36-.55-54.43-25.31-53.96-55.52.48-30.59,25.49-54.59,56.24-53.96,30.63.62,54.2,25.56,53.49,56.6-.68,29.74-25.66,53.43-55.77,52.89ZM728.32,75.59c-18.96-.05-34.4,15.25-34.27,33.97.13,18.36,15.54,33.72,33.92,33.8,18.83.08,34.11-15.25,34.05-34.18-.06-18.74-14.91-33.53-33.71-33.59Z"/>
  <path class="cls-1" d="M281.37,148.95c-21.22,20.98-56.1,20.12-77.05-1.55-21.19-21.92-20.36-56.86,1.85-77.92,21.16-20.06,56.21-19.91,75.16.41-4.74,4.46-9.51,8.95-14.39,13.54-17.99-13.57-39.08-9.12-50.19,5.52-10.11,13.33-8.94,31.98,2.74,44,12.7,13.07,30.54,13.67,48.04,1.13,4.49,4.83,9.07,9.75,13.83,14.87Z"/>
</svg>