<?xml version="1.0" encoding="UTF-8"?>
<svg id="Layer_1" data-name="Layer 1" xmlns="http://www.w3.org/2000/svg" viewBox="0 0 416.68 416.63">
  <defs>
    <style>
      .cls-1 {
        stroke-width: 0px;
      }
    </style>
  </defs>
  <path class="cls-1" d="M60.18,333.66C-1.13,265.39-6.5,150.84,67.66,72.12,133.7,2.02,252.89-7.61,326.84,53.95c-7.05,3.28-12.98,6.98-19.44,8.88-39.15,11.55-78.52,22.39-117.63,34.07-28.69,8.57-57.31,17.49-85.53,27.48-9.3,3.29-17.85,9.63-25.69,15.9-16.65,13.32-22.32,31.26-19.81,52.25,3.69,30.89,7.12,61.82,10.51,92.75,1.82,16.62.39,32.69-9.07,48.38Z"/>
  <path class="cls-1" d="M90.01,362.56c1.19-1.71,2.17-2.81,2.79-4.08,4.86-9.93,10.68-11.62,21.28-6.13,21.65,11.21,45.12,16.29,69.74,13.95,22.77-2.16,42.23-11.15,56.76-26.35-37.84-7.86-75.95-15.77-114.06-23.69l.52-5.07c9.55,0,19.13-.58,28.63.1,35.54,2.55,71.09,5.15,106.57,8.43,28.91,2.67,52.12-8.65,71.84-28.19,13.15-13.03,25.13-27.25,36.72-42.18-83.5,23.52-166.84,25.14-250.77,9.36-.26-1.21-.52-2.42-.78-3.62,6.78-1.87,13.47-4.76,20.36-5.42,28.76-2.77,57.74-3.7,86.34-7.52,37.45-5.01,74.86-10.92,111.81-18.73,24.75-5.23,44.43-21.04,61.67-39.92,13.57,43.16-6.07,124.94-64.18,172.97-73.16,60.48-173.12,62.84-245.26,6.1Z"/>
  <path class="cls-1" d="M104.53,185.14c6.64-2.76,13.07-6.33,19.97-8.14,49.3-12.9,98.75-25.19,148.02-38.2,22.44-5.93,44.78-12.44,66.75-19.9,11.14-3.78,21.35-10.27,33.68-16.37,5.52,10.64,11.44,22.04,18.52,35.67-94.5,28.97-189.89,41.14-285.65,51.22-.43-1.43-.85-2.85-1.28-4.28Z"/>
</svg>