<?xml version="1.0" encoding="UTF-8"?>
<svg id="Layer_1" data-name="Layer 1" xmlns="http://www.w3.org/2000/svg" viewBox="0 0 465.31 133.51">
  <defs>
    <style>
      .cls-1 {
        stroke-width: 0px;
      }
    </style>
  </defs>
  <path class="cls-1" d="M193.66.09c7.72,0,15.44-.21,23.14.06,9.38.32,18.07,2.76,24.95,9.71,5.35,5.43,8.15,12.16,9.78,19.43,2.23,9.99,2.97,20.12,1.31,30.27-1.64,10.08-4.75,19.63-11.97,27.28-6.59,6.98-15,10.16-24.33,10.72-7.4.44-14.83.2-22.26.26-4.21.03-4.93.75-4.9,4.9.05,9.09.08,18.16.09,27.25,0,2.89-.71,3.54-3.6,3.54-5.19,0-10.37,0-15.56-.03-3.09-.02-3.47-.41-3.47-3.53V3.2c0-2.92.2-3.09,3.03-3.09h23.79v-.02ZM189.41,48.84c0,7.57-.03,15.13,0,22.69.02,3.09.83,3.84,3.84,3.84,7.13,0,14.26.09,21.39,0,1.82-.03,3.81-.27,5.44-1.02,6.95-3.27,10.81-9.13,11.71-16.51.68-5.61.45-11.37.08-17.02-.18-2.85-1.12-5.88-2.55-8.35-3.63-6.32-8.61-10.61-16.67-10.11-6.24.38-12.53.06-18.8.08-3.72,0-4.46.72-4.48,4.39v22.04l.03-.02Z"/>
  <path class="cls-1" d="M464.92,48.21c0,7.64.23,15.28-.08,22.91-.21,5.05-1.61,9.96-4.02,14.47-3.78,7.07-10.04,10.48-17.74,11.56-2.14.3-4.3.56-6.45.56-13.63.05-27.25.32-40.86-.09-13.17-.39-23.09-9.96-24.96-23-2.13-14.79-1.07-29.63-1.09-44.47,0-3,.42-6.04,1.09-8.98,2.76-12.13,13.39-20.88,25.81-21.03,14.12-.17,28.26-.2,42.39,0,14.29.2,26.26,12.6,26.3,26.86.02,7.07,0,14.12,0,21.19h-.36l-.02.02ZM391.79,47.69c0,4.46-.02,8.94,0,13.4.05,8.15,3.96,13.01,12.12,13.78,7.01.65,14.09.6,21.13.47,3.17-.06,6.44-.74,9.47-1.76,6.21-2.1,8.83-6.65,8.26-13.23-.15-1.72-.14-3.45-.14-5.19,0-7.13,0-14.26.11-21.39.06-3.59-1.33-6.38-4.34-8.14-1.82-1.07-3.89-2.05-5.95-2.35-9.89-1.48-19.85-1.22-29.74-.35-7.9.69-10.9,4.51-10.9,12.45v12.31h-.02Z"/>
  <path class="cls-1" d="M358.34,48.54c-.53,8.62-.87,17.26-1.67,25.87-.42,4.52-1.88,8.89-4.4,12.77-4.02,6.21-10.04,9.16-17.14,9.99-4.13.48-8.34.65-12.5.68-10.81.09-21.63.03-32.44.02-8.64,0-15.95-2.94-21.31-9.92-3.83-5-6-10.76-6.21-17-.38-11.8-.39-23.63-.48-35.45-.03-3.74,0-7.51.42-11.21,1.61-13.63,13.04-23.98,26.79-24.15,13.84-.17,27.69-.15,41.53,0,13.91.15,25.94,11.61,26.62,25.47.38,7.63.06,15.27.06,22.91.24,0,.48.02.72.03h.02ZM335.04,48.75h.05c0-5.05-.02-10.08,0-15.13.02-2.65-.57-5.23-2.8-6.71-2.34-1.55-4.97-3.15-7.67-3.59-9.72-1.6-19.55-1.18-29.33-.44-7.39.56-10.82,4.01-10.94,10.81-.17,9.72-.05,19.46.12,29.18.03,1.88.54,3.89,1.34,5.61,2.03,4.42,6.06,6.18,10.54,6.41,7.76.39,15.56.45,23.32.36,2.46-.03,5.03-.66,7.31-1.61,4.73-1.96,8.17-5.09,8.08-10.82-.08-4.69-.02-9.36-.02-14.05l.02-.02Z"/>
  <path class="cls-1" d="M106.82,29.23c-.77,1.4-1.27,2.14-1.6,2.95-8.38,20.85-16.76,41.69-25.1,62.55-.83,2.05-2.03,3.06-4.37,3.03-7.21-.12-14.43-.08-21.63-.09-.63,0-1.27-.06-2.2-.12.65-1.63,1.18-3.09,1.79-4.52,8.44-19.41,16.91-38.83,25.35-58.24,4.54-10.43,9.03-20.89,13.52-31.34,1.33-3.04,1.84-3.41,5.22-3.41,6.71,0,13.42.08,20.12-.05,2.2-.05,3.36.71,4.19,2.79,12.22,30.7,24.52,61.39,36.82,92.07.98,2.43.75,2.83-1.78,2.83-7.36.02-14.71-.03-22.07.03-1.87.02-2.92-.72-3.57-2.44-7.25-19.58-14.55-39.15-21.83-58.71-.84-2.25-1.75-4.48-2.88-7.36v.02Z"/>
  <path class="cls-1" d="M.05,59.26c0-11.38-.05-22.78.02-34.17C.12,14.19,5.29,6.42,15.13,1.93c2.41-1.1,5.26-1.73,7.93-1.76C37.62-.01,52.18.06,66.74.05c2.94,0,3.24.32,3.26,3.21,0,5.26,0,10.52.03,15.78,0,3-.33,3.39-3.33,3.39-10.39,0-20.76-.02-31.14-.02-7.64,0-11.14,3.48-11.14,11.08,0,20.03.02,40.08.03,60.11,0,.5-.06,1.01,0,1.51.17,1.94-.69,2.71-2.64,2.7-6.35-.05-12.69-.03-19.02.03-2.28.05-2.79-1.15-2.79-3.12.05-11.82.02-23.65.02-35.47,0,0,.03,0,.03,0Z"/>
</svg>