<?xml version="1.0" encoding="UTF-8"?>
<svg id="Layer_1" data-name="Layer 1" xmlns="http://www.w3.org/2000/svg" viewBox="0 0 1436.59 156.48">
  <defs>
    <style>
      .cls-1 {
        stroke-width: 0px;
      }
    </style>
  </defs>
  <path class="cls-1" d="M526.43,118.74v35.96h-59.32V.93c28.63,0,56.85-.94,84.9.8,5.85.36,13.37,9.77,16.17,16.64,10.9,26.81,19.69,54.46,30.48,81.3,2.65,6.54,9.95,11.23,15.11,16.75,2.69-6.68,7.56-13.3,7.74-20.02.84-31.24.36-62.56.36-94.78h38.83v58.56c0,15.73.33,31.42-.15,47.15-.76,24.81-16.57,43.96-38.83,47.95-25.28,4.54-47.55-6.97-57.36-30.7-9.19-22.31-16.67-45.34-26.63-67.28-3.16-6.97-11.81-16.17-17.91-16.13-12.1.07-15.33,11.33-15.08,22.67.18,9.05.58,18.16-.11,27.17-1.2,15.95,2.22,27.94,21.8,27.75v-.04.02Z"/>
  <path class="cls-1" d="M700.44,155.72c0-8.43-.11-14.93,0-21.4.11-5.27.54-10.54.94-17.66,36.33,0,71.86-1.49,107.17.47,27.57,1.53,46.68-18.67,46.54-39.56-.15-22.52-19-37.82-46.17-37.89-35.46-.11-70.91,0-107.42,0V1.73c43.12,0,86.02-3.09,128.27.87,41.92,3.92,67.46,41.92,63.5,84.64-3.71,39.53-36.07,68.26-77.52,68.44-37.85.15-75.67,0-115.31,0v.04h0Z"/>
  <path class="cls-1" d="M1203.04,155.39c-56.38-21.72-110.98-42.29-165.26-63.86-21.65-8.61-29.5-26.41-25.72-52.02,3.05-20.74,19.8-37.89,41.85-38.4,49.37-1.05,98.78-.33,149.45-.33v59.32h-36.33c1.24-19.73-11.23-21.36-26.96-20.67-21.07.91-42.29-.62-63.32.73-6.9.44-13.48,6.58-20.16,10.14,5.05,5.05,9.19,12.46,15.26,14.79,33.2,12.68,66.88,24.09,100.37,35.93,23.95,8.48,34.23,26.6,30.84,54.38h-.04.02Z"/>
  <path class="cls-1" d="M192.86,1.18v59.18h-35.82c-.22-19.65-12.93-21.69-29.24-20.92-21.69,1.02-43.48-.44-65.17.73-5.7.29-11.12,6.39-16.64,9.81,4.29,4.98,7.59,12.46,12.97,14.49,34.37,13.04,69.17,24.92,103.86,37.13,33.53,11.81,35.17,14.71,28.88,53.51-24.38-9.34-48.46-18.56-72.51-27.75-30.41-11.66-60.99-22.78-91.11-35.13C5.37,82.92-2.88,65.48.87,39.11,3.52,20.51,19.76,2.23,39.74,1.65c50.53-1.42,101.1-.47,153.09-.47h.04,0Z"/>
  <path class="cls-1" d="M1283.25,155.03h-37.56V1.91h37.53c0,14.28.84,28.63-.22,42.87-1.02,13.95,4.8,16.57,17.73,17.51,22.2,1.63,39.89-3.85,54.6-21,7.81-9.08,19-15.33,26.48-24.63,14.89-18.38,33.6-17.91,54.78-14.68v37.93c-27.32-5.89-41.09,13.95-57.94,27.94-8.21,6.83-9.15,13.77-.47,20.96,16.89,13.99,30.59,33.82,58.12,28.41v36.98c-18.78,2.4-37.16,5.92-52.35-11.92-8.54-10.03-21.14-16.75-29.03-27.17-16.09-21.29-37.93-21.22-60.38-18.96-4.14.4-10.43,7.37-10.83,11.73-1.34,14.93-.51,30.04-.51,47.15h.05Z"/>
  <path class="cls-1" d="M217.31,155.72c38.87-48.43,74.07-94.24,111.53-138.12,16.89-19.76,41.16-21.11,65.25-12.75,21.43,7.45,31.64,24.56,32.48,45.74,1.34,34.22.36,68.51.36,103.93h-59.03v-35.27c19.65-.33,22.09-13.41,20.78-29.53-.69-8.39,1.2-17.15-.51-25.25-1.67-8.14-6.36-15.62-9.7-23.4-7.48,3.63-17.07,5.41-22.05,11.23-23.61,27.39-47.01,55.11-68.41,84.24-11.37,15.48-23.87,22.01-42.43,19.36-7.67-1.09-15.62-.18-28.26-.18h0Z"/>
  <path class="cls-1" d="M911.54,39.25V1.65h59.14v153.05h-37.71c0-30.77-.44-61.29.18-91.76.33-15.08-3.63-24.99-21.65-23.69h.04Z"/>
  <path class="cls-1" d="M1047.33,154.92h-35.06c-7.41-37.42-4.32-40.65,35.06-35.96v35.96Z"/>
  <path class="cls-1" d="M36.94,118.3v36.33H1.7v-36.33h35.27-.04,0Z"/>
</svg>