<?xml version="1.0" encoding="UTF-8"?>
<svg id="Layer_1" data-name="Layer 1" xmlns="http://www.w3.org/2000/svg" viewBox="0 0 505.85 512">
  <defs>
    <style>
      .cls-1 {
        stroke-width: 0px;
      }
    </style>
  </defs>
  <path class="cls-1" d="M331.72,0c7.21,1.01,14.48,1.74,21.63,3.07,74.57,13.84,123.69,57.03,144.18,129.89,17.89,63.63,7.14,123.32-34.13,175.84-30.98,39.43-71.92,63.03-121.94,68.88-19.6,2.29-39.56,1.37-59.36,2.05-3.86.13-3.81-2.16-3.81-4.81.01-18.5,0-36.99,0-55.49,0-13.66.14-27.33-.08-40.99-.07-4.27,1.1-5.8,5.6-5.76,13.66.13,27.35.31,40.97-.48,36.46-2.11,66.11-28.54,73.05-64.36,3.13-16.18,2.77-32.26-2.51-47.85-10.95-32.32-34.04-49.32-67.79-52.42-34.14-3.14-67.17,14.89-82.49,45.25-5.4,10.69-8.52,22.02-8.62,34.06-.1,12.33-.07,24.66-.09,36.99,0,1.8,0,3.6,0,5.75h-105c-.18-.7-.55-1.47-.54-2.24.28-18.98-.7-38.09,1.17-56.92,5.54-55.71,31.6-100.33,76.45-133.67C237.14,15.44,269.68,3.71,305.42,1c1.45-.11,2.86-.66,4.29-1,7.33,0,14.67,0,22,0Z"/>
  <path class="cls-1" d="M150.72,512c-.74-.34-1.45-.8-2.23-1-12.86-3.3-20.69-13.09-20.73-26.44-.08-31.5-.03-63-.03-94.5,0-2.14,0-4.29,0-7-2.32-.12-4.23-.3-6.15-.31-30.5-.02-61,0-91.5-.02-19.23,0-30.07-10.83-30.07-30.01-.01-25.83,0-51.67,0-77.5,0-1.8,0-3.61,0-5.75h239.71v242.52h-89Z"/>
</svg>