<?xml version="1.0" encoding="UTF-8"?>
<svg id="Layer_1" data-name="Layer 1" xmlns="http://www.w3.org/2000/svg" viewBox="0 0 555.66 462.77">
  <defs>
    <style>
      .cls-1 {
        stroke-width: 0px;
      }
    </style>
  </defs>
  <path class="cls-1" d="M232.25,201.97H57.49c6.39-13.88,11.17-26.71,17.88-38.44C120.75,84.13,189.31,37.3,279.11,22.48c52.4-8.65,102.62-.68,148.38,27.93,28.4,17.76,49.77,41.95,63.87,72.43.96,2.08,1.71,4.27,2.85,7.15-12.58,0-24.48.16-36.36-.21-1.48-.05-3.48-2.67-4.21-4.51-14.68-36.67-39.56-63.52-76.33-78.52-29.28-11.95-59.76-13.52-90.53-7.68-51.84,9.84-94.1,36.63-129.61,74.91-.84.91-1.53,1.96-3.41,4.39h242.4c-3.86,18.42-7.41,35.46-11,52.48-1.8,8.55-3.94,17.03-5.4,25.64-.72,4.26-2.44,5.54-6.67,5.48-15.59-.23-31.19.1-46.78-.22-4.87-.1-6.5,1.56-7.43,6.22-10.53,53.32-21.32,106.58-31.96,159.87-.64,3.22-1.35,5.61-5.44,5.59-26.92-.12-53.84-.09-80.75-.13-.6,0-1.21-.33-2.66-.75,11.32-56.5,22.63-113.01,34.17-170.59Z"/>
  <path class="cls-1" d="M456.53,244.14h-56.53c3.06-14.38,5.97-28.05,8.87-41.72,2.57-12.09,5.35-24.14,7.56-36.29.81-4.43,2.89-5.4,6.9-5.38,24.78.13,49.56.23,74.34-.02,5.01-.05,6.57,1.83,7.27,6.4,6.73,43.98-1.3,85.7-21.64,124.61-42.29,80.9-109.65,129.18-198.63,146.99-48.61,9.73-96.35,5.3-140.98-17.54-57.98-29.68-90.18-77.36-94.99-142.59-.99-13.49.6-27.19,1.42-40.77.11-1.76,2.66-4.78,4.15-4.82,13.2-.38,26.42-.22,39.58-.22-1.15,12.98-2.9,25.38-3.25,37.82-1.15,41.37,9.49,79.02,37.41,110.53,21.96,24.79,49.94,38.98,82.52,43.64,48.73,6.98,93.24-5.65,134.14-31.62,54.53-34.63,91.36-83.16,110.81-144.81.31-.98.5-2,1.05-4.23Z"/>
</svg>