<?xml version="1.0" encoding="UTF-8"?>
<svg id="Layer_1" data-name="Layer 1" xmlns="http://www.w3.org/2000/svg" viewBox="0 0 752.56 439.66">
  <defs>
    <style>
      .cls-1 {
        stroke-width: 0px;
      }
    </style>
  </defs>
  <path class="cls-1" d="M375.68,439.59c-108.81,0-217.62-.11-326.42.07-27.17.04-49.18-20.12-49.21-49.21-.09-114.14-.03-228.29,0-342.43,0-21.61,14.37-40.49,35.33-45.93C40.28.82,45.49.12,50.57.12,268.52,0,486.48-.1,704.43.16c27.59.03,48.03,21.03,48.06,47.82.12,115.31.05,230.62.04,345.93,0,24.2-21.63,45.62-46.43,45.69-39.32.11-78.65.03-117.97.03h-212.45v-.05h0ZM372.92,334.01c2.98.21,5.08.48,7.18.48,40.33.03,80.66.12,120.99-.06,7.46-.03,15.08-.42,22.35-1.95,59.61-12.53,103.16-46.17,129.79-100.93,10.86-22.33,15.33-46.15,9.5-70.89-8.65-36.71-39.78-58.2-77.19-59.02-43.48-.96-86.99-.24-130.49-.38-3.43-.01-5,1.11-6.05,4.35-4.53,14.1-9.32,28.11-13.98,42.17-.4,1.21-.54,2.5-.91,4.29,2.67.14,4.94.37,7.21.37,35.83.02,71.66-.13,107.49.07,27.59.15,44.01,19.38,39.76,46.53-3.9,24.96-18.03,43.21-38.67,56.87-17.83,11.8-38,14.36-58.73,14.54-2.76.02-5.53,0-9.2,0,10.62-31.41,20.92-61.87,31.39-92.85-2.27-.34-3.86-.74-5.46-.8-25.31-.87-50.62-1.59-75.92-2.61-4.43-.18-6.33,1.22-7.73,5.49-11.82,36.04-23.92,71.99-35.92,107.97-5.05,15.13-10.09,30.27-15.45,46.37h.04ZM186.39,165.55c-21.83-.73-42.44-1.5-63.07-1.93-1.19-.03-3.34,2.52-3.52,4.06-2.25,18.5-4.2,37.03-6.26,55.56-3.24,29.28-6.52,58.55-9.75,87.82-.83,7.55-1.57,15.11-2.37,22.89,1.91.23,3.21.53,4.52.53,27.17.03,54.33-.02,81.5.08,3.15.01,4.75-1.3,6.08-4.01,17.12-34.8,34.32-69.56,51.52-104.33,4.45-8.99,8.93-17.97,13.95-28.05.91,7.98,1.73,14.54,2.39,21.13,3.69,36.43,7.48,72.84,10.86,109.3.46,4.95,2.12,6.03,6.63,5.99,23.17-.17,46.33-.17,69.5,0,4.11.03,6.15-1.21,7.53-5.25,16.38-48.02,32.96-95.97,49.47-143.95,1.28-3.72,2.46-7.47,3.76-11.46-1.4-.25-2.19-.49-2.99-.52-19.31-.69-38.63-1.25-57.93-2.14-3.93-.18-5.57,1.14-6.68,4.74-5.19,16.85-10.6,33.63-15.96,50.43-2.18,6.85-4.43,13.68-6.65,20.52-1.48-7.14-2.22-14.08-2.94-21.02-1.78-17.05-3.6-34.09-5.31-51.15-.35-3.54-1.69-5.19-5.56-5.31-28.3-.85-56.6-1.88-84.9-2.92-3.15-.12-5.18.74-6.76,3.77-10.21,19.65-20.61,39.19-30.97,58.76-2.2,4.15-4.47,8.26-6.71,12.39-.19-.1-.38-.2-.56-.3,3.69-24.95,7.37-49.9,11.18-75.67v.04ZM349.37,151.74c1.57.3,2.51.64,3.45.64,20.13.03,40.26,0,60.39.07,3.2,0,4.13-1.76,5.01-4.38,4.45-13.22,9.09-26.37,13.64-39.56.74-2.13,1.33-4.31,1.96-6.35-.63-.35-.77-.5-.92-.5-21.61-.11-43.22-.25-64.84-.18-1.17,0-3.02,1.53-3.41,2.72-5.15,15.6-10.09,31.26-15.29,47.55h0ZM195.94,100.99c-1.48-.32-2.11-.57-2.74-.57-20.79-.03-41.58,0-62.37-.1-4.03-.02-3.94,2.72-4.24,5.35-.97,8.58-1.92,17.16-2.85,25.74-.72,6.67-1.38,13.35-2.05,19.94,1.22.34,1.69.58,2.16.58,20.46.04,40.92.11,61.37-.08,1.26,0,3.32-1.98,3.6-3.33,1.23-5.84,1.96-11.78,2.83-17.69,1.43-9.82,2.83-19.65,4.29-29.84ZM308.17,151.75c-1.71-15.8-3.46-30.98-4.9-46.19-.34-3.57-1.85-4.32-5.06-4.29-14.49.13-28.98.18-43.46-.04-3.56-.05-5.37,1.27-6.93,4.29-7.35,14.18-14.9,28.25-22.34,42.37-.58,1.1-.89,2.33-1.46,3.85h84.16-.01Z"/>
</svg>