<?xml version="1.0" encoding="UTF-8"?>
<svg id="Layer_1" data-name="Layer 1" xmlns="http://www.w3.org/2000/svg" viewBox="0 0 381.02 111.42">
  <defs>
    <style>
      .cls-1 {
        stroke-width: 0px;
      }
    </style>
  </defs>
  <path class="cls-1" d="M142.17,42.34c-4.77,15.96-9.06,29.64-12.89,43.44-1.18,4.2-2,7.01-7.47,7.05-5.86.04-6.03-3.64-7.14-7.45-5.31-18.18-10.84-36.3-15.98-54.52-.61-2.2-4.25-6.01,1.46-7.34,4.25-1,6.84.17,8.08,4.86,4.09,15.48,8.54,30.85,14.65,46.42,3.7-13.02,7.01-26.17,11.28-39,1.52-4.59-.61-12.48,8.1-12.61,8.91-.13,6.75,7.95,8.25,12.48,4.33,13.04,7.6,26.43,12,42.16,5.05-17.62,9.54-32.97,13.83-48.36.96-3.44,1.33-6.62,6.27-6.21,3.66.28,5.27,1.28,4.14,5.12-5.88,20.08-11.8,40.13-17.55,60.23-1.15,4.05-3.88,4.01-7.16,4.05s-5.1-.83-6.08-4.33c-3.7-13.35-7.75-26.59-11.67-39.87-.37-1.28-.87-2.53-2.11-6.14v.02Z"/>
  <path class="cls-1" d="M254.35,77.73c5.05-17.79,9.41-32.97,13.67-48.19.94-3.31,1.26-6.42,6.16-6.51,5.05-.09,5.9,2.59,6.97,6.55,3.57,13.39,7.58,26.65,11.37,39.98.61,2.16.76,4.46,3.07,6.12,4.29-15.39,8.43-30.66,12.89-45.84.76-2.59.33-6.84,5.07-6.58,3.79.2,7.29-.35,5.25,6.08-6.12,19.1-11.54,38.43-17.01,57.75-1.07,3.75-2.29,5.6-6.71,5.73-4.9.13-6.29-2.29-7.4-6.14-4.09-14.37-8.32-28.72-13.06-45.09-4.68,15.96-8.75,29.98-12.91,44.01-1.09,3.68-1.48,7.25-7.29,7.32-5.79.07-6.42-3.38-7.51-7.12-5.36-18.46-10.71-36.93-15.96-55.42-.65-2.29-3.88-5.49,1.11-6.68,3.72-.89,6.79-.91,8.17,4.4,4.09,15.85,8.88,31.51,14.11,49.67l.02-.02Z"/>
  <path class="cls-1" d="M339.05,72.24c1.94,8.95,7.93,12.39,16.57,12.06,8.91-.33,13.91-5.01,15.18-13.76.04-15.35.11-30.68.15-46.03,9.34-2.53,9.99-2.11,10.02,6.66.04,11.34.09,22.69,0,34.03-.15,16.51-8.19,26.06-22.75,27.35-16.42,1.44-26.43-5.94-29.92-21.99,0-14.22-.02-28.44-.04-42.63,1.33-7.73,6.14-4.81,10.45-3.44.11,15.92.22,31.83.33,47.75h.02Z"/>
  <path class="cls-1" d="M215.87,91.03c-3.98,2.53-7.97,2.5-11.98,0-.04-18.77-.11-37.54-.15-56.33,4.09-3.2,8.17-3.24,12.24,0-.04,18.77-.09,37.54-.11,56.31v.02Z"/>
  <path class="cls-1" d="M66.02,23.62c1.98,20.53.41,41.11.83,61.67.07,3.14-1.37,6.21-4.01,7.16-3.94,1.42-6.08,4.75-9.3,6.86-23.78,15.66-16.13,16.74-40.13-.26.59-.52,1.15-1.05,1.74-1.59l.96.11.94-.26c4.07,2.42,8.14,4.83,12.22,7.25,2.77,2.87,5.53,2.92,8.27,0,8.32-4.73,16.2-10.06,23.3-16.48,2.74-2.18,1.79-5.25,1.79-7.99.04-18.62-.04-37.21-.09-55.83.78-.89,1.57-1.76,2.37-2.66v.04c.37.65.74,1.33,1.09,1.98h.02Z"/>
  <path class="cls-1" d="M38.93,89c-6.84,3.46-10.89,2.81-10.65-6.29.33-12.3.3-24.63-.02-36.93-.13-4.92,1.07-7.64,6.31-7.51,1.37.33,2.77.68,4.14,1l-.17-.24c.13,16.66.26,33.31.41,49.97h-.02Z"/>
  <path class="cls-1" d="M4.86,86.74c.33,1.52,2.33,3.05.48,4.57-2.11,1.72-2.83-.39-3.7-1.76l-1.24-2.68C.22,66.71.02,46.57,0,26.4c0-1.61,1.22-3.2,1.87-4.81l2.37,2.63c.2,20.84.41,41.68.61,62.51Z"/>
  <path class="cls-1" d="M209.82,26.16c-4.12.68-6.05-.68-6.01-5.4.04-4.59,2.37-4.81,5.88-4.92,4.09-.13,6.23.74,6.14,5.55-.09,4.55-2.35,5.18-6.01,4.77Z"/>
  <path class="cls-1" d="M16.68,10.51c3.61-2.74,7.14-5.57,10.82-8.19,7.53-5.31,11.54-.63,15.42,5.31-9.69-4.92-17.05-1.48-23.67,5.27-.87-.81-1.72-1.61-2.59-2.42l.02.02Z"/>
  <path class="cls-1" d="M33.55,33.52c-3.22,0-5.47-.94-5.44-4.81,0-3.72,1.85-4.96,5.29-4.94,3.31,0,5.38.87,5.4,4.79.02,3.83-1.89,5.01-5.25,4.99v-.02Z"/>
  <path class="cls-1" d="M62.32,25.47c-.92-.43-1.86-.79-2.81-1.09-5.76-9-19.16-10.62-22.21-22.45,10.56,5.24,21.09,10.15,28.55,19.52-1.18,1.35-2.35,2.67-3.56,4.02h.03Z"/>
  <path class="cls-1" d="M6.12,23.51c-.65.17-1.28.41-1.89.7-.78-.87-1.59-1.76-2.37-2.63,3.79-5.23,9.45-7.97,14.83-11.08.87.81,1.72,1.61,2.59,2.42-4.38,3.53-8.75,7.08-13.15,10.6Z"/>
  <path class="cls-1" d="M13.39,99.04c-2.35-2.24-12.73-5.21-9.72-9.07,3.66-2.87,8.69,3.41,11.35,5.56-.09.65-.07,1.28.11,1.92-.59.52-1.15,1.05-1.74,1.59Z"/>
  <path class="cls-1" d="M66.02,23.62c-.37-.65-.74-1.33-1.09-1.98.37.65.74,1.33,1.09,1.98Z"/>
  <path class="cls-1" d="M.37,86.87c.41.89.83,1.79,1.24,2.68-.41-.89-.83-1.79-1.24-2.68Z"/>
</svg>